<svg width="12" height="10" viewBox="0 0 12 10" fill="none" xmlns="http://www.w3.org/2000/svg">
<path d="M3.33341 5.5C3.1566 5.5 2.98703 5.44732 2.86201 5.35355C2.73699 5.25979 2.66675 5.13261 2.66675 5C2.66675 4.86739 2.73699 4.74021 2.86201 4.64645C2.98703 4.55268 3.1566 4.5 3.33341 4.5C3.51023 4.5 3.67979 4.55268 3.80482 4.64645C3.92984 4.74021 4.00008 4.86739 4.00008 5C4.00008 5.13261 3.92984 5.25979 3.80482 5.35355C3.67979 5.44732 3.51023 5.5 3.33341 5.5ZM3.33341 7.5C3.1566 7.5 2.98703 7.44732 2.86201 7.35355C2.73699 7.25979 2.66675 7.13261 2.66675 7C2.66675 6.86739 2.73699 6.74021 2.86201 6.64645C2.98703 6.55268 3.1566 6.5 3.33341 6.5C3.51023 6.5 3.67979 6.55268 3.80482 6.64645C3.92984 6.74021 4.00008 6.86739 4.00008 7C4.00008 7.13261 3.92984 7.25979 3.80482 7.35355C3.67979 7.44732 3.51023 7.5 3.33341 7.5ZM5.33341 7C5.33341 7.13261 5.40365 7.25979 5.52868 7.35355C5.6537 7.44732 5.82327 7.5 6.00008 7.5C6.17689 7.5 6.34646 7.44732 6.47149 7.35355C6.59651 7.25979 6.66675 7.13261 6.66675 7C6.66675 6.86739 6.59651 6.74021 6.47149 6.64645C6.34646 6.55268 6.17689 6.5 6.00008 6.5C5.82327 6.5 5.6537 6.55268 5.52868 6.64645C5.40365 6.74021 5.33341 6.86739 5.33341 7ZM8.66675 7.5C8.48994 7.5 8.32037 7.44732 8.19534 7.35355C8.07032 7.25979 8.00008 7.13261 8.00008 7C8.00008 6.86739 8.07032 6.74021 8.19534 6.64645C8.32037 6.55268 8.48994 6.5 8.66675 6.5C8.84356 6.5 9.01313 6.55268 9.13815 6.64645C9.26318 6.74021 9.33341 6.86739 9.33341 7C9.33341 7.13261 9.26318 7.25979 9.13815 7.35355C9.01313 7.44732 8.84356 7.5 8.66675 7.5ZM5.33341 5C5.33341 5.13261 5.40365 5.25979 5.52868 5.35355C5.6537 5.44732 5.82327 5.5 6.00008 5.5C6.17689 5.5 6.34646 5.44732 6.47149 5.35355C6.59651 5.25979 6.66675 5.13261 6.66675 5C6.66675 4.86739 6.59651 4.74021 6.47149 4.64645C6.34646 4.55268 6.17689 4.5 6.00008 4.5C5.82327 4.5 5.6537 4.55268 5.52868 4.64645C5.40365 4.74021 5.33341 4.86739 5.33341 5ZM8.66675 5.5C8.48994 5.5 8.32037 5.44732 8.19534 5.35355C8.07032 5.25979 8.00008 5.13261 8.00008 5C8.00008 4.86739 8.07032 4.74021 8.19534 4.64645C8.32037 4.55268 8.48994 4.5 8.66675 4.5C8.84356 4.5 9.01313 4.55268 9.13815 4.64645C9.26318 4.74021 9.33341 4.86739 9.33341 5C9.33341 5.13261 9.26318 5.25979 9.13815 5.35355C9.01313 5.44732 8.84356 5.5 8.66675 5.5ZM3.33341 2.5C3.1566 2.5 2.98703 2.55268 2.86201 2.64645C2.73699 2.74021 2.66675 2.86739 2.66675 3C2.66675 3.13261 2.73699 3.25979 2.86201 3.35355C2.98703 3.44732 3.1566 3.5 3.33341 3.5H8.66675C8.84356 3.5 9.01313 3.44732 9.13815 3.35355C9.26318 3.25979 9.33341 3.13261 9.33341 3C9.33341 2.86739 9.26318 2.74021 9.13815 2.64645C9.01313 2.55268 8.84356 2.5 8.66675 2.5H3.33341Z" fill="#A7A7A7"/>
<path fill-rule="evenodd" clip-rule="evenodd" d="M2 0.5C1.46957 0.5 0.960859 0.658035 0.585787 0.93934C0.210714 1.22064 0 1.60218 0 2V8C0 8.39782 0.210714 8.77936 0.585787 9.06066C0.960859 9.34196 1.46957 9.5 2 9.5H10C10.5304 9.5 11.0391 9.34196 11.4142 9.06066C11.7893 8.77936 12 8.39782 12 8V2C12 1.60218 11.7893 1.22064 11.4142 0.93934C11.0391 0.658035 10.5304 0.5 10 0.5H2ZM10 1.5H2C1.82319 1.5 1.65362 1.55268 1.5286 1.64645C1.40357 1.74021 1.33333 1.86739 1.33333 2V8C1.33333 8.13261 1.40357 8.25979 1.5286 8.35355C1.65362 8.44732 1.82319 8.5 2 8.5H10C10.1768 8.5 10.3464 8.44732 10.4714 8.35355C10.5964 8.25979 10.6667 8.13261 10.6667 8V2C10.6667 1.86739 10.5964 1.74021 10.4714 1.64645C10.3464 1.55268 10.1768 1.5 10 1.5Z" fill="#A7A7A7"/>
</svg>
