<svg width="120" height="119" viewBox="0 0 120 119" fill="none"
    xmlns="http://www.w3.org/2000/svg">
    
    <g id="logo">
        <path d="M48 23.79C48 29.2269 46.1148 34.4955 42.6657 38.6983C39.2166 42.901 34.417 45.7778 29.0846 46.8385C23.7522 47.8992 18.2171 47.0781 13.4222 44.5152C8.62731 41.9523 4.86942 37.8061 2.78883 32.7831C0.708239 27.7601 0.433668 22.1711 2.0119 16.9684C3.59013 11.7656 6.92352 7.27106 11.4441 4.2505C15.9647 1.22995 21.3927 -0.129706 26.8034 0.403198C32.2141 0.936101 37.2726 3.3286 41.117 7.17303L38.5485 9.74152C35.2983 6.49133 31.0217 4.46864 26.4474 4.01811C21.873 3.56757 17.284 4.71707 13.4622 7.27073C9.64032 9.8244 6.82218 13.6242 5.48789 18.0228C4.15361 22.4213 4.38574 27.1465 6.14473 31.393C7.90373 35.6396 11.0808 39.1449 15.1345 41.3117C19.1882 43.4785 23.8678 44.1726 28.376 43.2759C32.8841 42.3792 36.9419 39.947 39.8579 36.3939C42.7738 32.8408 44.3676 28.3865 44.3676 23.79H48Z"/>
        <path d="M16.0159 39.0958C12.4748 37.1329 9.72382 34.003 8.23174 30.2392C6.73967 26.4755 6.59878 22.3108 7.83309 18.4548C9.0674 14.5988 11.6005 11.2901 15.0009 9.09244C18.4012 6.89477 22.4584 5.9441 26.4811 6.40243C30.5038 6.86076 34.2431 8.69972 37.0619 11.606C39.8807 14.5122 41.6047 18.306 41.9399 22.3408C42.2752 26.3756 41.2011 30.4018 38.9006 33.7335C36.6001 37.0651 33.2156 39.496 29.3237 40.612L28.5781 38.0118C31.8684 37.0683 34.7298 35.0132 36.6747 32.1965C38.6196 29.3798 39.5277 25.9759 39.2442 22.5648C38.9608 19.1536 37.5033 15.9463 35.1202 13.4893C32.7371 11.0322 29.5758 9.4775 26.1749 9.09002C22.774 8.70254 19.3439 9.50626 16.4692 11.3642C13.5944 13.2222 11.4528 16.0195 10.4093 19.2795C9.36578 22.5394 9.48489 26.0604 10.7463 29.2424C12.0078 32.4243 14.3335 35.0705 17.3273 36.73L16.0159 39.0958Z" />
        <path d="M24.5 11.29C27.3919 11.29 30.1944 12.2928 32.4299 14.1274C34.6654 15.962 36.1956 18.515 36.7598 21.3514C37.324 24.1878 36.8873 27.132 35.524 29.6825C34.1608 32.233 31.9554 34.2318 29.2835 35.3385C26.6117 36.4452 23.6389 36.5913 20.8714 35.7518C18.104 34.9123 15.7133 33.1392 14.1066 30.7347C12.5 28.3301 11.7767 25.4428 12.0602 22.5648C12.3437 19.6868 13.6163 16.9961 15.6612 14.9512L17.0274 16.3174C15.2986 18.0463 14.2227 20.321 13.983 22.7542C13.7434 25.1874 14.3548 27.6283 15.7131 29.6612C17.0715 31.6941 19.0927 33.1931 21.4323 33.9029C23.772 34.6126 26.2853 34.4891 28.5442 33.5535C30.803 32.6178 32.6675 30.9279 33.82 28.7717C34.9726 26.6155 35.3418 24.1263 34.8648 21.7283C34.3878 19.3304 33.0941 17.172 31.2042 15.621C29.3142 14.0699 26.9449 13.2222 24.5 13.2222L24.5 11.29Z" />
        <path d="M17.0301 19.7343C17.9685 18.0061 19.477 16.6567 21.2987 15.916C23.1205 15.1754 25.1426 15.0893 27.0207 15.6725C28.8988 16.2556 30.5165 17.4719 31.5983 19.1141C32.6802 20.7563 33.1591 22.7229 32.9535 24.6786C32.748 26.6344 31.8706 28.4583 30.471 29.8397C29.0714 31.2211 27.2361 32.0745 25.2779 32.2545C23.3196 32.4344 21.3595 31.9298 19.7316 30.8266C18.1037 29.7233 16.9086 28.0898 16.3501 26.2043L17.7273 25.7963C18.1915 27.3632 19.1846 28.7207 20.5374 29.6375C21.8902 30.5543 23.5191 30.9737 25.1464 30.8241C26.7738 30.6746 28.2989 29.9654 29.462 28.8175C30.6251 27.6695 31.3542 26.1537 31.525 24.5285C31.6959 22.9032 31.2979 21.269 30.3989 19.9043C29.4999 18.5396 28.1555 17.5288 26.5948 17.0442C25.034 16.5596 23.3536 16.6311 21.8397 17.2466C20.3258 17.8621 19.0722 18.9835 18.2924 20.4196L17.0301 19.7343Z" fill="white"/>
        <path d="M28.2197 26.3227C27.6337 27.1833 26.7675 27.8141 25.7687 28.1076C24.7698 28.4011 23.7001 28.3392 22.7417 27.9324C21.7834 27.5256 20.9958 26.7991 20.513 25.8767C20.0303 24.9543 19.8823 23.893 20.0943 22.8737C20.3063 21.8544 20.8652 20.9402 21.6757 20.2868C22.4862 19.6334 23.4982 19.2812 24.5393 19.2903C25.5803 19.2994 26.586 19.6692 27.385 20.3366C28.184 21.0041 28.7269 21.9279 28.921 22.9508L28.0934 23.1079C27.9356 22.2765 27.4944 21.5256 26.845 20.9831C26.1955 20.4406 25.3781 20.14 24.5319 20.1326C23.6858 20.1253 22.8632 20.4115 22.2044 20.9426C21.5456 21.4737 21.0914 22.2168 20.9191 23.0453C20.7467 23.8737 20.867 24.7363 21.2594 25.4861C21.6517 26.2358 22.2919 26.8263 23.0709 27.157C23.8498 27.4876 24.7193 27.5379 25.5312 27.2994C26.3431 27.0608 27.0471 26.5481 27.5234 25.8486L28.2197 26.3227Z" fill="white"/>
        <path d="M23.7068 21.4192C24.2553 21.2357 24.8504 21.248 25.3909 21.4541C25.9313 21.6602 26.3835 22.0473 26.6705 22.5495C26.9575 23.0516 27.0615 23.6378 26.9648 24.208C26.8681 24.7783 26.5767 25.2973 26.1402 25.6768C25.7037 26.0563 25.1491 26.2726 24.5709 26.289C23.9928 26.3054 23.4268 26.1209 22.9695 25.7668C22.5122 25.4127 22.1918 24.9109 22.0629 24.3471C21.934 23.7832 22.0046 23.1922 22.2627 22.6745L23.1394 23.1117C22.9825 23.4264 22.9395 23.7859 23.0179 24.1288C23.0963 24.4717 23.2911 24.7768 23.5693 24.9921C23.8474 25.2075 24.1916 25.3197 24.5431 25.3098C24.8947 25.2998 25.232 25.1682 25.4975 24.9374C25.7629 24.7067 25.9402 24.391 25.999 24.0442C26.0578 23.6974 25.9945 23.341 25.82 23.0356C25.6454 22.7302 25.3704 22.4948 25.0418 22.3695C24.7131 22.2442 24.3512 22.2367 24.0176 22.3483L23.7068 21.4192Z" fill="white"/>
        <circle cx="24.5" cy="23.79" r="0.5" transform="rotate(-180 24.5 23.79)" />
        <path d="M77.83 19.65C77.83 20.71 77.58 21.71 77.08 22.65C76.58 23.59 75.78 24.36 74.68 24.96C73.58 25.54 72.17 25.83 70.45 25.83H66.67V34.29H63.25V13.44H70.45C72.05 13.44 73.4 13.72 74.5 14.28C75.62 14.82 76.45 15.56 76.99 16.5C77.55 17.44 77.83 18.49 77.83 19.65ZM70.45 23.04C71.75 23.04 72.72 22.75 73.36 22.17C74 21.57 74.32 20.73 74.32 19.65C74.32 17.37 73.03 16.23 70.45 16.23H66.67V23.04H70.45ZM88.2618 34.56C86.7018 34.56 85.2918 34.21 84.0318 33.51C82.7718 32.79 81.7818 31.79 81.0618 30.51C80.3418 29.21 79.9818 27.71 79.9818 26.01C79.9818 24.33 80.3518 22.84 81.0918 21.54C81.8318 20.24 82.8418 19.24 84.1218 18.54C85.4018 17.84 86.8318 17.49 88.4118 17.49C89.9918 17.49 91.4218 17.84 92.7018 18.54C93.9818 19.24 94.9918 20.24 95.7318 21.54C96.4718 22.84 96.8418 24.33 96.8418 26.01C96.8418 27.69 96.4618 29.18 95.7018 30.48C94.9418 31.78 93.9018 32.79 92.5818 33.51C91.2818 34.21 89.8418 34.56 88.2618 34.56ZM88.2618 31.59C89.1418 31.59 89.9618 31.38 90.7218 30.96C91.5018 30.54 92.1318 29.91 92.6118 29.07C93.0918 28.23 93.3318 27.21 93.3318 26.01C93.3318 24.81 93.1018 23.8 92.6418 22.98C92.1818 22.14 91.5718 21.51 90.8118 21.09C90.0518 20.67 89.2318 20.46 88.3518 20.46C87.4718 20.46 86.6518 20.67 85.8918 21.09C85.1518 21.51 84.5618 22.14 84.1218 22.98C83.6818 23.8 83.4618 24.81 83.4618 26.01C83.4618 27.79 83.9118 29.17 84.8118 30.15C85.7318 31.11 86.8818 31.59 88.2618 31.59ZM103.643 20.16C104.143 19.32 104.803 18.67 105.623 18.21C106.463 17.73 107.453 17.49 108.593 17.49V21.03H107.723C106.383 21.03 105.363 21.37 104.663 22.05C103.983 22.73 103.643 23.91 103.643 25.59V34.29H100.223V17.76H103.643V20.16ZM115.726 20.55V29.7C115.726 30.32 115.866 30.77 116.146 31.05C116.446 31.31 116.946 31.44 117.646 31.44H119.746V34.29H117.046C115.506 34.29 114.326 33.93 113.506 33.21C112.686 32.49 112.276 31.32 112.276 29.7V20.55H110.326V17.76H112.276V13.65H115.726V17.76H119.746V20.55H115.726ZM129.828 20.55H126.768V34.29H123.318V20.55H121.368V17.76H123.318V16.59C123.318 14.69 123.818 13.31 124.818 12.45C125.838 11.57 127.428 11.13 129.588 11.13V13.98C128.548 13.98 127.818 14.18 127.398 14.58C126.978 14.96 126.768 15.63 126.768 16.59V17.76H129.828V20.55ZM140.029 34.56C138.469 34.56 137.059 34.21 135.799 33.51C134.539 32.79 133.549 31.79 132.829 30.51C132.109 29.21 131.749 27.71 131.749 26.01C131.749 24.33 132.119 22.84 132.859 21.54C133.599 20.24 134.609 19.24 135.889 18.54C137.169 17.84 138.599 17.49 140.179 17.49C141.759 17.49 143.189 17.84 144.469 18.54C145.749 19.24 146.759 20.24 147.499 21.54C148.239 22.84 148.609 24.33 148.609 26.01C148.609 27.69 148.229 29.18 147.469 30.48C146.709 31.78 145.669 32.79 144.349 33.51C143.049 34.21 141.609 34.56 140.029 34.56ZM140.029 31.59C140.909 31.59 141.729 31.38 142.489 30.96C143.269 30.54 143.899 29.91 144.379 29.07C144.859 28.23 145.099 27.21 145.099 26.01C145.099 24.81 144.869 23.8 144.409 22.98C143.949 22.14 143.339 21.51 142.579 21.09C141.819 20.67 140.999 20.46 140.119 20.46C139.239 20.46 138.419 20.67 137.659 21.09C136.919 21.51 136.329 22.14 135.889 22.98C135.449 23.8 135.229 24.81 135.229 26.01C135.229 27.79 135.679 29.17 136.579 30.15C137.499 31.11 138.649 31.59 140.029 31.59ZM155.41 12.09V34.29H151.99V12.09H155.41ZM161.64 15.57C161.02 15.57 160.5 15.36 160.08 14.94C159.66 14.52 159.45 14 159.45 13.38C159.45 12.76 159.66 12.24 160.08 11.82C160.5 11.4 161.02 11.19 161.64 11.19C162.24 11.19 162.75 11.4 163.17 11.82C163.59 12.24 163.8 12.76 163.8 13.38C163.8 14 163.59 14.52 163.17 14.94C162.75 15.36 162.24 15.57 161.64 15.57ZM163.32 17.76V34.29H159.9V17.76H163.32ZM174.981 34.56C173.421 34.56 172.011 34.21 170.751 33.51C169.491 32.79 168.501 31.79 167.781 30.51C167.061 29.21 166.701 27.71 166.701 26.01C166.701 24.33 167.071 22.84 167.811 21.54C168.551 20.24 169.561 19.24 170.841 18.54C172.121 17.84 173.551 17.49 175.131 17.49C176.711 17.49 178.141 17.84 179.421 18.54C180.701 19.24 181.711 20.24 182.451 21.54C183.191 22.84 183.561 24.33 183.561 26.01C183.561 27.69 183.181 29.18 182.421 30.48C181.661 31.78 180.621 32.79 179.301 33.51C178.001 34.21 176.561 34.56 174.981 34.56ZM174.981 31.59C175.861 31.59 176.681 31.38 177.441 30.96C178.221 30.54 178.851 29.91 179.331 29.07C179.811 28.23 180.051 27.21 180.051 26.01C180.051 24.81 179.821 23.8 179.361 22.98C178.901 22.14 178.291 21.51 177.531 21.09C176.771 20.67 175.951 20.46 175.071 20.46C174.191 20.46 173.371 20.67 172.611 21.09C171.871 21.51 171.281 22.14 170.841 22.98C170.401 23.8 170.181 24.81 170.181 26.01C170.181 27.79 170.631 29.17 171.531 30.15C172.451 31.11 173.601 31.59 174.981 31.59Z" />
    
    </g>


    <!-- My tech Stack (Skills)-->

    <g id="html">
        <path d="M22.1323 102.004L13.7061 7.5H106.294L97.856 101.989L59.9436 112.5L22.1323 102.004Z" fill="#E44F26"/>
        <path d="M60 104.468L90.6375 95.9738L97.845 15.2288H60V104.468Z" fill="#F1662A"/>
        <path d="M60 50.2762H44.6625L43.605 38.4075H60V26.8162H30.9375L31.215 29.9287L34.0613 61.8675H60V50.2762ZM60 80.3775L59.9475 80.3925L47.04 76.9087L46.215 67.665H34.5787L36.2025 85.86L59.9475 92.4525L60 92.4375V80.3775Z" fill="#EBEBEB"/>
        <path d="M59.959 50.2762V61.8675H74.2315L72.889 76.9012L59.959 80.3887V92.4487L83.7227 85.86L83.8952 83.9025L86.6177 53.3887L86.9027 50.2762H59.959ZM59.959 26.8162V38.4075H87.9565L88.189 35.805L88.7177 29.9287L88.9952 26.8162H59.959Z" fill="white"/>
    </g>
    <g id="css">
        <path d="M22.1325 101.154L13.71 7.4375H106.29L97.8562 101.139L59.9437 111.562L22.1325 101.154Z" fill="#1572B6"/>
        <path d="M60 103.597L90.6375 95.1739L97.845 15.1018H60V103.597Z" fill="#33A9DC"/>
        <path d="M60 49.054H75.3375L76.395 37.2842H60V25.7896H89.0625L88.785 28.8724L85.9387 60.5487H60V49.054Z" fill="white"/>
        <path d="M60.0713 78.9045L60.0188 78.9193L47.1113 75.4609L46.2863 66.2942H34.65L36.2738 84.3413L60.015 90.8788L60.0713 90.864V78.9045Z" fill="#EBEBEB"/>
        <path d="M74.3513 60.0615L72.9563 75.4534L60.03 78.9119V90.8714L83.79 84.3412L83.9663 82.4001L85.98 60.0615H74.3513Z" fill="white"/>
        <path d="M60.0413 25.7896V37.2842H32.0438L31.8113 34.6997L31.2825 28.8724L31.005 25.7896H60.0413ZM60 49.054V60.5487H47.2538L47.0213 57.9642L46.4963 52.1369L46.2188 49.054H60Z" fill="#EBEBEB"/>
    </g>
    <g id="js">
        <path d="M7.5 7.5H112.5V112.5H7.5V7.5Z" fill="#F5DE19"/>
        <path d="M78.0338 89.5312C78.9284 91.3485 80.3183 92.8759 82.0434 93.9375C83.7684 94.9991 85.7584 95.5515 87.7838 95.5313C91.8713 95.5313 94.485 93.4875 94.485 90.6562C94.485 87.2812 91.8 86.0738 87.3 84.105L84.8325 83.0475C77.7075 80.0138 72.9825 76.215 72.9825 68.1825C72.9825 60.7838 78.6075 55.1475 87.4313 55.1475C90.2877 54.9412 93.1416 55.5805 95.637 56.9856C98.1324 58.3907 100.159 60.4994 101.464 63.0488L93.75 67.98C93.2476 66.716 92.3728 65.6345 91.2416 64.879C90.1105 64.1236 88.7764 63.7298 87.4163 63.75C86.8229 63.6906 86.2236 63.7555 85.6567 63.9404C85.0897 64.1254 84.5675 64.4265 84.1234 64.8244C83.6792 65.2224 83.3228 65.7085 83.0769 66.2518C82.831 66.7951 82.7009 67.3837 82.695 67.98C82.695 70.9388 84.5288 72.1388 88.7625 73.98L91.23 75.0375C99.615 78.6338 104.355 82.2975 104.355 90.5363C104.355 99.42 97.3763 104.287 88.005 104.287C84.3537 104.52 80.713 103.691 77.5223 101.901C74.3317 100.11 71.7274 97.4342 70.0238 94.1963L78.0338 89.5312ZM43.1775 90.3863C44.7263 93.135 46.1363 95.46 49.5263 95.46C52.7663 95.46 54.8138 94.1925 54.8138 89.2612V55.71H64.68V89.3925C64.68 99.6075 58.68 104.257 49.9463 104.257C46.8591 104.426 43.7931 103.657 41.1513 102.051C38.5096 100.444 36.4157 98.0761 35.145 95.2575L43.1775 90.3863Z" fill="black"/>
    </g>
    <g id="react">
        <g clip-path="url(#clip0_2_5870)">
            <path d="M92.9056 32.7028C91.7031 32.2887 90.4904 31.9051 89.2687 31.5524C89.4739 30.7107 89.6628 29.8792 89.8306 29.0624C92.5838 15.6484 90.7839 4.84184 84.6361 1.28381C78.7416 -2.12716 69.1016 1.42955 59.3659 9.93348C58.4064 10.7731 57.4682 11.6369 56.5522 12.524C55.9389 11.9341 55.3149 11.3556 54.6803 10.7889C44.4767 1.69623 34.2493 -2.13602 28.1081 1.43221C22.2189 4.8538 20.475 15.0127 22.9538 27.7254C23.2004 28.9845 23.4788 30.2371 23.7888 31.4819C22.3412 31.8948 20.9442 32.3342 19.6073 32.802C7.64443 36.9882 0.00476074 43.5483 0.00476074 50.353C0.00476074 57.3809 8.20629 64.4301 20.6662 68.7044C21.6763 69.0495 22.6949 69.3693 23.7209 69.6635C23.3877 71.0042 23.0918 72.3541 22.8337 73.7114C20.4706 86.2035 22.316 96.1224 28.1893 99.5223C34.2555 103.033 44.437 99.4248 54.3506 90.7268C55.1545 90.0197 55.9407 89.2925 56.7084 88.546C57.7004 89.5067 58.7189 90.4394 59.7627 91.343C69.366 99.6365 78.8502 102.985 84.7177 99.5763C90.7782 96.055 92.748 85.3995 90.1907 72.4357C89.9893 71.42 89.7634 70.4094 89.5132 69.4048C90.2282 69.1921 90.93 68.9733 91.6141 68.7456C104.567 64.4385 112.995 57.4748 112.995 50.353C112.995 43.5235 105.109 36.9191 92.9056 32.7028ZM90.0963 64.1474C89.4783 64.3525 88.8445 64.5506 88.1984 64.7433C86.7683 60.1996 84.8387 55.3684 82.4769 50.3764C84.7305 45.5036 86.586 40.7341 87.9759 36.2201C89.1319 36.5558 90.2534 36.9098 91.3347 37.2832C101.791 40.8962 108.169 46.2372 108.169 50.353C108.169 54.7367 101.281 60.4277 90.0963 64.1474ZM85.4557 73.3765C86.5865 79.1087 86.7476 84.2916 85.9986 88.3436C85.3259 91.9845 83.9727 94.4116 82.299 95.3839C78.7385 97.4526 71.1235 94.7637 62.911 87.6707C61.9401 86.8305 60.9927 85.9634 60.0699 85.0704C63.2539 81.5757 66.4358 77.5131 69.5412 73.0009C75.0036 72.5145 80.1641 71.7189 84.844 70.6332C85.0694 71.5426 85.2734 72.4574 85.4557 73.3765ZM38.5257 95.0264C35.0469 96.2592 32.2759 96.2947 30.6009 95.3254C27.0369 93.2625 25.5552 85.2981 27.5762 74.6151C27.8165 73.3527 28.0916 72.0973 28.4012 70.8502C33.0294 71.8779 38.1523 72.6168 43.6275 73.0625C46.7542 77.4777 50.0278 81.5358 53.3271 85.0894C52.6259 85.7704 51.9082 86.4339 51.1745 87.0793C46.7904 90.9253 42.3974 93.6541 38.5257 95.0264ZM22.2277 64.1204C16.7181 62.2302 12.168 59.7739 9.04931 57.0934C6.24661 54.6849 4.83202 52.2932 4.83202 50.353C4.83202 46.2235 10.9657 40.9564 21.1962 37.3767C22.4378 36.9426 23.7372 36.5328 25.0856 36.1483C26.4997 40.7642 28.3544 45.5905 30.5926 50.4708C28.3252 55.4233 26.4441 60.3267 25.0163 64.9971C24.0798 64.7278 23.15 64.4355 22.2277 64.1204ZM27.691 26.7947C25.5676 15.9031 26.9777 7.68712 30.5268 5.62504C34.3067 3.42873 42.6653 6.56017 51.4755 14.4116C52.05 14.9247 52.6152 15.4483 53.1708 15.982C49.8879 19.5201 46.6443 23.5481 43.5454 27.9372C38.2313 28.4315 33.1446 29.2254 28.4678 30.289C28.1797 29.1311 27.9206 27.9661 27.691 26.7952V26.7947ZM76.4301 38.874C75.3255 36.9589 74.1799 35.068 72.9941 33.2025C76.5992 33.6601 80.0533 34.2674 83.297 35.0098C82.3233 38.1426 81.1095 41.4176 79.6808 44.7754C78.6365 42.7867 77.5527 40.8192 76.4301 38.874ZM56.5544 19.4443C58.7806 21.8652 61.0104 24.5679 63.2036 27.5004C58.7546 27.2895 54.2982 27.2886 49.8491 27.4977C52.0445 24.5922 54.2932 21.8931 56.5544 19.4443ZM36.5511 38.9072C35.4425 40.8368 34.3789 42.792 33.3613 44.7714C31.956 41.4255 30.7532 38.1355 29.7712 34.9584C32.9949 34.2346 36.4328 33.6428 40.0149 33.1936C38.8159 35.0705 37.661 36.9754 36.5511 38.9067V38.9072ZM40.1178 67.857C36.4169 67.4424 32.9274 66.8811 29.7045 66.1768C30.702 62.943 31.9312 59.583 33.367 56.1653C34.3887 58.1462 35.4567 60.1026 36.57 62.0331C37.7149 64.0177 38.9005 65.9615 40.1178 67.857ZM56.6877 81.6027C54.3996 79.1256 52.1177 76.3848 49.8892 73.4372C52.0528 73.5223 54.2584 73.5657 56.5001 73.5657C58.8031 73.5657 61.0797 73.5139 63.3206 73.4138C61.1203 76.4145 58.8989 79.1592 56.6877 81.6027ZM79.7263 55.9908C81.2366 59.4461 82.5096 62.7884 83.5203 65.9668C80.2444 66.7172 76.7073 67.3214 72.9804 67.7702C74.1746 65.87 75.3311 63.9462 76.4491 61.9999C77.5858 60.0215 78.6784 58.018 79.7263 55.9908ZM72.268 59.5794C70.5565 62.5635 68.7487 65.491 66.8475 68.3571C63.4038 68.6019 59.9525 68.7235 56.5001 68.7217C52.9837 68.7217 49.5635 68.6118 46.27 68.3974C44.3193 65.5379 42.477 62.6053 40.7472 59.606H40.7476C39.0259 56.6225 37.4177 53.5745 35.9265 50.4686C37.4139 47.3619 39.0172 44.3125 40.733 41.3268L40.7326 41.3272C42.4478 38.3407 44.2753 35.4207 46.2113 32.5734C49.5715 32.3183 53.0172 32.1854 56.4996 32.1854H56.5001C59.9984 32.1854 63.4486 32.3196 66.8078 32.5765C68.7243 35.4195 70.5402 38.3295 72.2521 41.3011C73.9736 44.2802 75.5982 47.3148 77.1231 50.3999C75.6138 53.5166 73.9944 56.5784 72.268 59.5794ZM82.2253 5.48062C86.0087 7.67073 87.4803 16.5025 85.103 28.0842C84.9512 28.8231 84.7808 29.5758 84.5955 30.339C79.9072 29.2528 74.8169 28.4453 69.4874 27.9434C66.3828 23.506 63.1656 19.4718 59.9361 15.9793C60.7825 15.1605 61.6491 14.3628 62.5349 13.5872C70.8768 6.30147 78.6732 3.42474 82.2253 5.48062ZM56.5001 40.2264C62.0724 40.2264 66.5898 44.7603 66.5898 50.353C66.5898 55.9456 62.0724 60.4796 56.5001 60.4796C50.9278 60.4796 46.4104 55.9456 46.4104 50.353C46.4104 44.7603 50.9278 40.2264 56.5001 40.2264Z" fill="#00D8FF"/>
        </g>
        <defs>
            <clipPath id="clip0_2_5870">
                <rect width="113" height="101" fill="white"/>
            </clipPath>
        </defs>
    </g>
    <g id="redux">
        <path d="M72.6971 69.5627C76.5688 69.1619 79.5061 65.8242 79.3725 61.8184C79.2393 57.8131 75.9012 54.6086 71.8959 54.6086H71.6291C67.4897 54.7422 64.2856 58.2135 64.4193 62.3525C64.5529 64.3553 65.3537 66.091 66.5553 67.2926C62.016 76.2385 55.0734 82.7807 44.6594 88.2549C37.5832 91.9934 30.2402 93.3287 22.8971 92.3943C16.8889 91.593 12.216 88.923 9.27827 84.5164C5.00614 77.9742 4.60573 70.8975 8.21065 63.8213C10.7475 58.7475 14.7525 55.009 17.2893 53.1398C16.7553 51.4041 15.9541 48.4668 15.5537 46.3307C-3.80574 60.35 -1.80287 79.3094 4.07172 88.2549C8.47745 94.9311 17.4229 99.0701 27.3029 99.0701C29.9729 99.0701 32.643 98.8029 35.3135 98.1357C52.4033 94.7975 65.3541 84.65 72.6971 69.5627ZM96.1955 53.0066C86.0483 41.1234 71.0951 34.5811 54.0053 34.5811H51.8693C50.6676 32.1779 48.1307 30.5754 45.327 30.5754H45.0598C40.9213 30.709 37.7172 34.1803 37.8504 38.3197C37.984 42.325 41.3217 45.5295 45.327 45.5295H45.5938C48.5311 45.3959 51.068 43.5266 52.1361 40.9898H54.5393C64.6865 40.9898 74.2992 43.927 82.9779 49.6684C89.6533 54.0746 94.4598 59.816 97.1299 66.7586C99.3996 72.3664 99.266 77.8406 96.8627 82.5139C93.1246 89.5902 86.8496 93.4623 78.5717 93.4623C73.2311 93.4623 68.1578 91.8598 65.4873 90.6582C64.0188 91.9934 61.3484 94.1295 59.4791 95.4652C65.2205 98.1352 71.0951 99.6041 76.7025 99.6041C89.5197 99.6041 98.9992 92.5275 102.604 85.4512C106.476 77.707 106.209 64.3553 96.1955 53.0066ZM28.3709 71.832C28.5045 75.8377 31.8422 79.0418 35.8475 79.0418H36.1147C40.2537 78.9086 43.4578 75.4369 43.3242 71.2979C43.191 67.2922 39.8529 64.0881 35.8475 64.0881H35.5807C35.3135 64.0881 34.9127 64.0881 34.6463 64.2213C29.1721 55.1422 26.9025 45.2623 27.7037 34.5807C28.2373 26.5697 30.9078 19.6266 35.5807 13.8852C39.4525 8.94508 46.9291 6.5418 52.0029 6.40861C66.1549 6.14139 72.1627 23.7656 72.5635 30.8422C74.2992 31.2426 77.2365 32.1775 79.2393 32.8451C77.6369 11.2156 64.2856 0 51.4688 0C39.4524 0 28.3709 8.67869 23.9647 21.4963C17.8234 38.5865 21.8287 55.009 29.3053 67.9602C28.6381 68.8947 28.2373 70.3635 28.3709 71.8324V71.832Z" fill="#764ABC"/>
    </g>
    <g id="bootstrap">
        <g clip-path="url(#clip0_2_5691)">
            <path d="M0 75.7821C0 81.9781 5.08028 87 11.3468 87H76.6528C82.9204 87 88 81.9774 88 75.7821V11.2182C88 5.02187 82.9197 0 76.6532 0H11.3472C5.07959 0 0 5.02255 0 11.2179V75.7818V75.7821Z" fill="#563D7C"/>
            <path d="M36.4919 38.4832V26.1629H47.4613C48.5063 26.1629 49.5135 26.2489 50.4836 26.4212C51.4536 26.5931 52.312 26.9003 53.0583 27.3431C53.8042 27.786 54.4013 28.4007 54.8492 29.1875C55.2968 29.9746 55.5209 30.9829 55.5209 32.2121C55.5209 34.4255 54.8492 36.0241 53.5058 37.0076C52.1628 37.9915 50.4464 38.4832 48.3568 38.4832H36.4919ZM24.7759 17.1621V69.8379H50.5956C52.9837 69.8379 55.3095 69.5429 57.5731 68.9526C59.8367 68.3623 61.8514 67.4525 63.6176 66.223C65.3834 64.9934 66.789 63.407 67.8337 61.4645C68.8787 59.5216 69.4008 57.2222 69.4008 54.5663C69.4008 51.2709 68.5923 48.4553 66.9757 46.1192C65.3587 43.7828 62.9084 42.1474 59.6249 41.2129C62.0129 40.0819 63.8166 38.6307 65.0355 36.8601C66.2541 35.0895 66.8636 32.8765 66.8636 30.2203C66.8636 27.7612 66.4532 25.6956 65.6323 24.0232C64.8114 22.3512 63.6547 21.0108 62.1621 20.0025C60.6699 18.9942 58.879 18.2686 56.7893 17.8262C54.7 17.3833 52.3866 17.1621 49.8493 17.1621H24.7759ZM36.4919 60.8371V46.3771H49.2523C51.7895 46.3771 53.8293 46.9548 55.3717 48.111C56.9138 49.2668 57.6851 51.1971 57.6851 53.9023C57.6851 55.2797 57.4486 56.4107 56.976 57.296C56.5033 58.1813 55.8691 58.8823 55.073 59.3986C54.2772 59.9151 53.3566 60.2839 52.312 60.5054C51.267 60.7263 50.1728 60.8371 49.0285 60.8371H36.4919Z" fill="white"/>
        </g>
        <defs>
            <clipPath id="clip0_2_5691">
                <rect width="88" height="87" fill="white"/>
            </clipPath>
        </defs>
    </g>
    <g id="tailwind">
        <path d="M36.8438 56.0844C40.6646 40.8011 50.2167 33.1594 65.5 33.1594C88.425 33.1594 91.2906 50.3532 102.753 53.2188C110.395 55.1292 117.081 52.2636 122.812 44.6219C118.992 59.9053 109.44 67.5469 94.1562 67.5469C71.2313 67.5469 68.3656 50.3532 56.9031 47.4875C49.2615 45.5771 42.575 48.4428 36.8438 56.0844ZM8.1875 90.4719C12.0083 75.1886 21.5604 67.5469 36.8438 67.5469C59.7687 67.5469 62.6344 84.7407 74.0969 87.6063C81.7385 89.5167 88.425 86.6511 94.1562 79.0094C90.3354 94.2928 80.7833 101.934 65.5 101.934C42.575 101.934 39.7094 84.7407 28.2469 81.875C20.6052 79.9646 13.9187 82.8303 8.1875 90.4719Z" fill="#44A8B3"/>
    </g>
    <g id="sass">
        <g clip-path="url(#clip0_2_5872)">
            <path d="M100.673 50.0767C96.603 50.0975 93.0653 51.0695 90.1035 52.5064C89.0162 50.3721 87.9295 48.4708 87.738 47.0761C87.5246 45.4494 87.2691 44.4561 87.5246 42.5122C87.7805 40.5683 88.9312 37.8002 88.9098 37.589C88.8887 37.3779 88.6538 36.3846 86.3098 36.3638C83.9658 36.3425 81.9413 36.8074 81.7068 37.42C81.4724 38.0326 81.025 39.4274 80.7266 40.8638C80.3216 42.9771 76.0386 50.5199 73.5881 54.4711C72.7993 52.9291 72.1174 51.5765 71.968 50.499C71.755 48.8723 71.4991 47.879 71.755 45.9351C72.0109 43.9912 73.1617 41.2235 73.1402 41.0119C73.1187 40.8008 72.8843 39.8075 70.5403 39.7867C68.1958 39.7654 66.1713 40.2303 65.9373 40.8429C65.7029 41.456 65.4469 42.8924 64.957 44.2871C64.4667 45.6818 58.7769 58.2751 57.2852 61.5285C56.6824 62.8454 56.0501 64.1487 55.3886 65.4376C55.3886 65.4376 55.3672 65.5011 55.3032 65.6067C55.0954 66.0108 54.8824 66.4123 54.6643 66.8111V66.8319C54.3444 67.4028 54.0035 67.9307 53.833 67.9307C53.705 67.9307 53.4706 66.4096 53.8755 64.3388C54.7278 59.9652 56.7524 53.1616 56.7313 52.9291C56.7313 52.8022 57.1148 51.6191 55.4101 51.0061C53.7475 50.3934 53.1511 51.4075 53.0017 51.4075C52.8527 51.4075 52.7458 51.7669 52.7458 51.7669C52.7458 51.7669 54.6003 44.1181 49.2085 44.1181C45.8417 44.1181 41.1958 47.7735 38.8943 51.0695C36.278 52.4812 33.6639 53.8969 31.052 55.3166C29.7953 56.014 28.4951 56.7114 27.2803 57.3661C27.1949 57.2818 27.1099 57.1758 27.0244 57.0915C20.5034 50.1823 8.442 45.3012 8.95339 36.0257C9.14534 32.645 10.3171 23.7705 32.1178 12.9948C50.0608 4.22589 64.3392 6.65555 66.8111 12.0437C70.3484 19.735 59.1608 34.0184 40.6204 36.0887C33.5455 36.8708 29.8373 34.1661 28.9 33.152C27.9197 32.0953 27.7703 32.0319 27.4079 32.2435C26.8115 32.5607 27.1949 33.5114 27.4079 34.0605C27.9622 35.497 30.2422 38.0326 34.0994 39.2796C37.5091 40.378 45.7988 40.9911 55.8361 37.1454C67.0666 32.8348 75.8466 20.8547 73.2682 10.8184C70.6893 0.633969 53.641 -2.7255 37.5091 2.95805C27.9197 6.33927 17.52 11.6635 10.0402 18.594C1.15363 26.8341 -0.253039 33.9971 0.322334 36.9977C2.38984 47.6466 17.2006 54.5771 23.1248 59.7115C22.8263 59.8805 22.5489 60.0287 22.3149 60.1556C19.3526 61.6133 8.05811 67.4658 5.24523 73.6569C2.04891 80.6717 5.75708 85.7009 8.20756 86.3765C15.8154 88.4686 23.6362 84.7077 27.8342 78.4953C32.0323 72.2834 31.5209 64.2119 29.5818 60.5144C29.5604 60.4723 29.5393 60.4297 29.4964 60.3876C30.2637 59.9439 31.052 59.479 31.8194 59.0354C33.2296 58.2088 34.6578 57.4127 36.1029 56.6475C35.3781 58.6127 34.8452 60.958 34.5897 64.3388C34.2698 68.3114 35.9105 73.4666 38.063 75.4947C39.0223 76.3829 40.1515 76.4037 40.8763 76.4037C43.3908 76.4037 44.5205 74.3329 45.7778 71.882C47.3119 68.8818 48.6971 65.3955 48.6971 65.3955C48.6971 65.3955 46.971 74.8191 51.6595 74.8191C53.3641 74.8191 55.0902 72.6215 55.8575 71.5018V71.5227C55.8575 71.5227 55.9 71.4592 55.9855 71.3115C56.156 71.0369 56.2624 70.8674 56.2624 70.8674V70.8257C56.9443 69.6422 58.4789 66.9588 60.7589 62.5005C63.6998 56.7535 66.5342 49.5697 66.5342 49.5697C66.5342 49.5697 66.7901 51.3232 67.6634 54.2391C68.1753 55.9506 69.2401 57.831 70.0929 59.6481C69.411 60.5992 68.9846 61.1271 68.9846 61.1271L69.0061 61.1484C68.4518 61.8666 67.8554 62.6482 67.1945 63.4095C64.8716 66.1558 62.1016 69.3046 61.7178 70.2127C61.2699 71.2902 61.3768 72.0723 62.2296 72.7062C62.8475 73.1711 63.9553 73.2341 65.085 73.1711C67.1735 73.0229 68.6437 72.5159 69.3681 72.1992C70.4978 71.7977 71.819 71.1846 73.0548 70.2761C75.3352 68.6068 76.72 66.2193 76.5925 63.0714C76.5285 61.3387 75.9531 59.6059 75.2498 57.9787C75.4632 57.6833 75.6547 57.3874 75.8681 57.0915C79.4693 51.8724 82.2612 46.1463 82.2612 46.1463C82.2612 46.1463 82.5171 47.8999 83.3905 50.8162C83.8168 52.2952 84.6907 53.9011 85.4575 55.4644C82.0693 58.1904 79.9807 61.3595 79.2349 63.4303C77.8926 67.276 78.9365 69.0083 80.9185 69.4097C81.8133 69.6 83.092 69.1773 84.0298 68.7758C85.2231 68.3956 86.6297 67.7409 87.9724 66.7685C90.2529 65.0996 92.4474 62.7751 92.3195 59.6272C92.2555 58.1904 91.8721 56.7743 91.3392 55.4009C94.2161 54.2183 97.9242 53.563 102.655 54.1122C112.799 55.2953 114.802 61.5707 114.418 64.2124C114.035 66.8532 111.904 68.2901 111.201 68.7337C110.497 69.1777 110.263 69.3254 110.327 69.6422C110.412 70.1071 110.753 70.0862 111.35 70.0015C112.181 69.8538 116.678 67.8673 116.869 63.0075C117.189 56.7956 111.222 50.0133 100.673 50.0767ZM22.4214 76.2347C19.0542 79.8688 14.3662 81.2422 12.3417 80.0804C10.1681 78.8334 11.0204 73.4666 15.1545 69.6213C17.669 67.276 20.9083 65.0992 23.0608 63.7683C23.5507 63.4724 24.2755 63.0501 25.1493 62.5218C25.2983 62.437 25.3838 62.3949 25.3838 62.3949L25.8952 62.0777C27.4078 67.5714 25.9591 72.4103 22.4214 76.2347ZM46.9285 59.7115C45.7563 62.5431 43.3058 69.7904 41.8141 69.3889C40.5354 69.0509 39.7466 63.5572 41.5582 58.1269C42.4745 55.4009 44.4136 52.147 45.5433 50.8796C47.3759 48.851 49.4005 48.1745 49.8904 48.9992C50.5087 50.0767 47.6529 57.9366 46.9285 59.7115ZM67.152 69.3042C66.6617 69.5579 66.1932 69.7269 65.9798 69.6C65.8308 69.5153 66.1932 69.1773 66.1932 69.1773C66.1932 69.1773 68.7292 66.473 69.7305 65.2473C70.3063 64.5291 70.9877 63.684 71.7125 62.7329V63.0075C71.7125 66.2406 68.5583 68.4169 67.1516 69.3042H67.152ZM82.7511 65.7757C82.3887 65.5219 82.4527 64.6768 83.6674 62.0356C84.1363 61.0002 85.2441 59.2679 87.1411 57.5986C87.3541 58.2746 87.5035 58.9299 87.4821 59.5425C87.4606 63.6206 84.5202 65.1417 82.7511 65.7757Z" fill="#CD6799"/>
        </g>
        <defs>
            <clipPath id="clip0_2_5872">
                <rect width="117" height="87" fill="white"/>
            </clipPath>
        </defs>
    </g>
    <g id="gitIcon">
        <g clip-path="url(#clip0_2_5868)">
            <path d="M103.02 47.8219L57.1758 1.98038C54.5372 -0.6598 50.2552 -0.6598 47.6134 1.98038L38.0937 11.5001L50.1699 23.5763C52.9762 22.6281 56.1943 23.2642 58.4313 25.5012C60.6789 27.7525 61.3106 30.9981 60.3393 33.8134L71.9775 45.452C74.7932 44.482 78.0421 45.1095 80.291 47.3621C83.434 50.5039 83.434 55.596 80.291 58.7399C77.1471 61.8841 72.055 61.8841 68.9095 58.7399C66.5454 56.3733 65.9613 52.9013 67.1582 49.9888L56.3046 39.1352L56.3034 67.6973C57.0902 68.0863 57.8088 68.6002 58.4313 69.2189C61.5743 72.3607 61.5743 77.4532 58.4313 80.5995C55.2874 83.7422 50.1929 83.7422 47.0535 80.5995C43.9105 77.4532 43.9105 72.3611 47.0535 69.2193C47.8067 68.4658 48.7019 67.869 49.6871 67.4635V38.6352C48.7004 38.2324 47.8048 37.6353 47.0535 36.8793C44.6722 34.5013 44.0996 31.0071 45.3198 28.0831L33.4154 16.1775L1.98105 47.6099C-0.660352 50.2525 -0.660352 54.5349 1.98105 57.1755L47.8259 103.018C50.4652 105.658 54.7464 105.658 57.3891 103.018L103.019 57.3884C105.66 54.747 105.66 50.4621 103.019 47.8219" fill="#DE4C36"/>
        </g>
        <defs>
            <clipPath id="clip0_2_5868">
                <rect width="105" height="105" fill="white"/>
            </clipPath>
        </defs>
    </g>
    <g id="greensock">
        <path d="M67.365 119.745C65.8012 119.471 64.1812 118.729 63.2625 117.908C62.6388 117.253 62.2829 116.389 62.265 115.485C62.265 114.566 62.7337 113.276 63.4762 111.99C63.9262 111.266 64.2787 110.486 64.53 109.665C64.6875 109.099 65.0175 108.18 65.2725 107.595L65.7225 106.523L65.8387 99.3563C65.8987 95.3925 66.015 91.7213 66.1125 91.1513C66.3675 89.5088 66.795 87.9075 67.3612 86.3475L67.7925 85.3125L67.1662 84.9413C66.6 84.5888 66.1312 84.1013 64.275 81.8925C61.9912 79.1963 58.9837 77.7113 54.7237 77.205C53.3362 77.07 51.93 76.9688 50.5237 76.9125C44.2725 76.62 40.6987 75.3113 37.4775 72.1463C35.0737 69.7838 33.825 67.0275 33.3187 62.9663C32.6362 57.4763 31.875 54.6638 30.4687 52.38C30.1221 51.816 29.7228 51.2861 29.2762 50.7975L28.71 50.2313L27.4612 51.0338C26.7787 51.4838 25.8187 52.05 25.35 52.305C23.7862 53.1638 22.3012 54.12 20.8762 55.155C17.3812 57.6938 13.5712 60.8775 11.4825 62.9663C10.545 63.9038 10.0575 64.3125 9.83998 64.275C8.41498 64.0613 9.50623 57.8888 11.8312 53.2388C14.8012 47.2425 19.8 41.715 25.5825 37.9838C30.33 34.9163 38.0062 30.6975 41.5575 29.2125C47.865 26.5763 56.0287 23.7225 61.6162 22.2C62.79 21.8663 63.51 21.5738 63.9975 21.2438C65.0925 20.4825 66.165 20.1113 67.395 20.0925C68.43 20.0738 68.5275 20.055 69.525 19.3875C70.6987 18.6263 71.0475 18.585 72.2212 18.9975L72.9825 19.2713L73.92 18.6263L74.8575 18L76.2037 18.0188C77.2387 18.0375 77.7075 18 78.1575 17.805C78.7237 17.55 78.7425 17.5125 78.9 16.575C79.2525 14.5425 79.29 13.5263 79.0762 12.2963C78.8025 10.6763 78.765 4.3875 79.0387 3.15375C79.3312 1.82625 79.5262 1.5525 80.5237 1.065C82.0087 0.341252 83.1225 0.127502 85.68 0.127502C88.8037 0.127502 90.3862 0.558753 91.56 1.69125C92.6137 2.7075 92.79 5.08875 92.2425 10.6763C91.9087 13.8975 91.8712 14.7975 91.9687 16.905C92.0062 18.2513 92.1037 19.5225 92.145 19.6988C92.2237 20.0325 92.3025 20.0513 93.435 20.07C94.5487 20.0888 94.7437 20.1488 95.7975 20.6963C96.8137 21.225 97.575 21.87 97.7325 22.3388C97.7512 22.4363 97.9275 22.4363 98.2387 22.3388C98.8425 22.1625 99.3712 22.3575 99.8025 22.8863C100.057 23.22 100.211 23.2763 100.8 23.2763C101.602 23.2763 101.895 23.4713 102.559 24.45C102.869 24.8893 103.295 25.2344 103.789 25.4475C104.884 25.995 106.369 27.5175 106.935 28.7288C107.812 30.525 107.989 32.6138 107.441 34.4888C107.246 35.1938 107.246 35.2125 107.655 35.895C108.514 37.3613 108.829 39.1575 108.476 40.68L108.281 41.58L108.866 42.165C111.776 45.075 111.345 49.8225 107.794 54.06C107.397 54.544 107.062 55.0756 106.796 55.6425C106.114 57.4575 105.33 58.7288 104.317 59.7825L103.282 60.8363H102.229C101.175 60.8363 99.69 60.4838 98.79 60.015C98.4187 59.82 98.4 59.82 98.4787 60.0525C98.715 60.9113 99.3 64.4063 99.495 66.3413C99.8062 69.3113 99.7087 73.6275 99.3 75.4838C99.0013 76.8586 98.5008 78.1816 97.815 79.41C97.425 80.0363 97.4062 80.1713 97.4812 80.9325C97.5975 82.005 97.3462 83.805 96.915 84.9938C96.3862 86.3813 96.1912 87.0263 96.075 87.7275C95.9775 88.3313 95.9775 88.3313 96.4087 88.3313C96.975 88.3313 97.2862 88.665 97.2862 89.3288C97.2862 89.6213 97.0312 91.2038 96.72 92.8238C95.8612 97.3763 95.8012 97.8825 95.8012 102.296C95.7825 106.849 95.7825 106.808 96.8175 107.49L99.1425 108.994C101.143 110.321 103.285 111.422 105.529 112.275C108.791 113.565 109.241 113.895 109.241 114.99C109.241 115.478 109.144 115.654 108.735 116.044C107.486 117.255 105.022 117.529 100.061 117C97.4832 116.758 94.8955 116.635 92.3062 116.629C85.47 116.531 84.4725 116.295 83.5762 114.596C83.07 113.621 83.1675 112.35 83.8687 110.261C84.18 109.343 84.4537 108.405 84.69 107.449C85.1587 105.184 84.8475 102.488 83.7525 99.4425L82.815 96.8438C81.8962 94.2075 81.39 89.3813 81.9375 88.29C82.035 88.0763 82.2112 88.035 82.68 88.0538L83.265 88.1138L83.7525 87.0975C84.1237 86.295 84.5325 85.77 85.6462 84.6563L87.0712 83.2313L86.9925 82.3125C86.9325 81.435 85.7812 77.175 85.6237 77.1938C85.5637 77.1938 85.2525 77.625 84.9 78.1688C84.0412 79.4588 82.1475 81.45 81.0712 82.1738C80.6025 82.485 80.2125 82.8563 80.2125 82.9763C80.1937 83.505 79.7437 84.54 79.1962 85.26C78.6675 85.965 78.63 86.0813 78.7087 86.7038C78.8437 87.6225 78.5512 90.57 78.2025 92.115C77.8864 93.2622 77.4541 94.3742 76.9125 95.4338C75.5662 98.2275 74.55 100.725 74.295 101.88C74.1108 102.992 73.9931 104.114 73.9425 105.24C73.8825 106.568 73.7475 107.858 73.65 108.131C73.515 108.503 73.515 108.795 73.6312 109.361C73.7287 109.77 73.7887 110.689 73.7662 111.413C73.7475 112.41 73.8262 113.055 74.1187 114.225C74.625 116.216 74.7225 117.469 74.49 118.211C74.3325 118.68 74.1787 118.856 73.65 119.111C72.4762 119.715 69.1575 120.049 67.3612 119.738L67.365 119.745ZM72.1087 118.144C72.7912 117.949 73.38 117.364 73.38 116.835C73.38 116.599 73.185 115.916 72.9487 115.313C72.48 114.161 71.6775 111.113 71.6775 110.606C71.6775 110.351 71.6962 110.333 72.0862 110.546L72.5175 110.783V110.235C72.4549 109.73 72.3431 109.233 72.1837 108.75C71.8125 107.636 71.775 107.618 69.4087 107.479L67.8075 107.4L67.2225 107.966C66.9008 108.297 66.6189 108.665 66.3825 109.061C66.1275 109.568 66.03 110.333 66.1875 110.505C66.225 110.565 66.6187 110.505 67.0462 110.408C67.3 110.332 67.5618 110.287 67.8262 110.273C67.8262 110.291 67.395 110.644 66.8512 111.015C64.5075 112.774 63.6862 113.846 63.6862 115.215C63.6862 116.64 65.0325 117.754 67.1437 118.088C68.5875 118.301 71.4 118.361 72.105 118.148L72.1087 118.144ZM103.886 115.819C104.471 115.114 104.392 114.394 103.65 113.573C103.219 113.141 102.731 112.77 102.184 112.478C101.636 112.185 101.089 111.851 100.541 111.503C99.551 110.861 98.5338 110.261 97.4925 109.706C96.5925 109.219 95.715 108.709 94.8562 108.165L94.5037 107.891V102.521C94.5037 97.23 94.485 97.1513 94.2112 97.23C92.8425 97.6013 90.5775 97.7775 87.7087 97.7175L84.6037 97.68L85.0537 98.775C85.8937 100.845 86.325 103.62 86.325 106.804C86.325 107.996 86.2462 108.424 85.9537 109.264C85.7962 109.673 85.6612 110.085 85.5225 110.494C85.4625 110.67 85.68 110.805 86.4787 111.041C87.0637 111.218 87.9225 111.394 88.4137 111.45L89.3137 111.548L89.2162 112.448C89.1187 113.464 89.235 114.536 89.49 114.87C89.6475 115.065 90.2325 115.144 92.9475 115.26C94.9987 115.358 97.2262 115.571 98.9812 115.826C100.504 116.063 102.146 116.258 102.634 116.258C103.455 116.276 103.534 116.239 103.882 115.826L103.886 115.819ZM72.6187 106.68C72.6975 106.62 72.8137 105.566 72.855 104.318C73.0125 100.823 73.1475 100.313 74.9062 96.3675C76.35 93.1463 77.115 90.1388 77.055 88.0088L77.0175 86.7375L76.47 87.2663C75.3375 88.3988 76.1175 86.6213 77.4675 85.0388C78.4837 83.8275 78.8362 83.1638 78.99 82.0913C79.0687 81.66 79.2262 81.4463 79.89 80.94C82.3735 79.0639 84.2871 76.5349 85.4175 73.635C85.6912 72.93 86.3925 70.53 86.9812 68.3025C88.0762 64.1813 88.6612 62.4038 89.19 61.6425C89.385 61.35 89.4637 61.29 89.4262 61.485C89.143 62.5324 88.9214 63.5955 88.7625 64.6688C88.605 65.625 88.3125 67.5 88.1175 68.8088C87.7462 71.4863 87.3562 73.2038 86.8275 74.5313L86.475 75.4313L87.4125 77.8538C88.3875 80.3325 88.8375 82.1325 88.9162 83.8688L88.9762 84.8438L88.215 85.0013C87.2102 85.1791 86.3136 85.7396 85.7137 86.565C85.05 87.5213 84.6787 88.305 84.855 88.4775C84.9337 88.5563 85.89 88.7325 86.985 88.8675C88.6837 89.0625 89.3287 89.0625 91.575 88.9275C92.55 88.89 93.51 88.7925 94.4662 88.6538C94.68 88.575 94.8975 88.1475 95.2462 87.0338C96.0487 84.4763 96.2025 83.5763 96.105 81.78L96.0262 80.1975L96.435 79.6688C97.3912 78.4575 98.1337 76.2713 98.445 73.71C98.8162 70.5863 98.1337 64.0425 96.8625 58.4175C96.2587 55.74 96.0037 54.1388 96.0037 52.9688V51.9338L95.0475 52.0313C91.6087 52.4025 87.45 52.305 84.9112 51.7763C83.5237 51.5025 80.0287 50.4675 79.2675 50.1338L78.6637 49.86L78.585 50.5425C78.525 50.9138 78.4687 51.285 78.39 51.675C78.2737 52.0838 78.3112 52.1813 79.035 52.8863C79.935 53.805 80.2087 54.2738 80.2087 54.8963C80.2087 55.2863 79.995 55.6013 78.9 56.7338C78.1149 57.5715 77.2438 58.3244 76.3012 58.98L75.03 59.8388L74.4825 61.7325C72.5287 68.6663 72.1575 74.9738 73.4475 79.485L73.7587 80.6175L73.1325 81.3975C70.7887 84.345 69.4012 86.5913 69.1875 87.8438C69.0625 88.4605 68.9187 89.0733 68.7562 89.6813C68.25 91.6163 67.8562 94.4475 67.6837 97.515C67.5635 100.083 67.3948 102.648 67.1775 105.21L67.08 105.971L68.055 106.264C68.6025 106.44 69.4237 106.635 69.8925 106.714C70.77 106.849 72.3937 106.811 72.645 106.676L72.6187 106.68ZM91.5825 95.9363C93.105 95.8388 94.4925 95.6025 94.7662 95.37C94.8825 95.2913 95.0212 94.8825 95.0587 94.47L95.1562 93.7275L93.945 94.0013C92.9887 94.1963 92.0325 94.3125 91.0725 94.3913C88.7662 94.4888 86.445 94.4288 84.1575 94.1963C83.3962 94.08 83.3962 94.08 83.6287 95.0738C83.8237 95.8163 83.865 95.8538 85.8562 95.9925C87.1837 96.1088 89.04 96.09 91.5787 95.9325L91.5825 95.9363ZM90.3112 92.5388C92.3025 92.3625 94.785 91.935 95.2725 91.68C95.43 91.6013 95.565 91.3088 95.625 90.975L95.8012 89.94L95.8987 89.4525L95.4112 89.55C93.2437 90 91.6012 90.135 88.32 90.135C85.1175 90.135 84.7462 90.1163 83.9062 89.8238C83.5834 89.6877 83.2397 89.6078 82.89 89.5875C82.755 89.6663 82.7325 90.78 82.8525 91.56C82.9312 92.0288 83.01 92.1075 83.4787 92.2425C84.9637 92.6513 87.465 92.7488 90.315 92.5163L90.3112 92.5388ZM54.0637 74.9213C59.0625 73.4775 65.6062 69.2363 70.9575 63.9263C72.6975 62.1863 72.9112 61.9538 73.1437 61.1738L73.455 60.1763C73.4925 60.0975 73.1812 59.9625 72.7725 59.865C71.7 59.61 70.8787 58.9875 70.8787 58.4213C70.8787 58.0875 70.6837 57.7575 70.1175 57.15C69.1987 56.115 68.9662 55.665 68.8687 54.6713L68.79 53.8688L67.695 53.0888C67.0687 52.6388 64.8825 51.4275 62.5575 50.2575C60.7872 49.3939 59.0544 48.4555 57.3637 47.445C55.41 46.1363 54.1012 44.5725 53.3587 42.72C53.2237 42.3488 53.0475 42.0375 52.9875 42.0375C52.83 42.0375 48.435 46.275 46.56 48.2663C41.9325 53.1488 38.7487 57.3863 36.735 61.3125C36.2287 62.2875 35.6812 63.4425 35.5237 63.87L35.2312 64.65L35.5837 65.9588C35.7975 66.6638 36.2475 67.815 36.6 68.4975C37.83 70.92 39.2962 72.3825 41.7187 73.575C44.3175 74.865 46.62 75.315 50.4675 75.255C52.5375 75.2363 53.145 75.1763 54.06 74.9025L54.0637 74.9213ZM14.61 57.7913C17.8912 54.8813 22.4212 51.6975 27.9712 48.3975C31.605 46.23 45.6487 39.1988 52.1137 36.3263C53.2875 35.7975 54.3412 35.31 54.4575 35.2538C54.5737 35.175 54.9075 34.335 55.2187 33.3975C56.5875 29.0625 57.27 28.2038 59.7487 27.6375C60.06 27.5588 60.1387 27.4613 60.1387 27.15C60.1387 26.5838 60.5287 25.275 60.8625 24.69C61.1175 24.24 61.1175 24.2213 60.9 24.2813C60.765 24.3188 59.9437 24.555 59.085 24.81C47.1712 28.2488 36.7612 32.8163 27.7762 38.52C18.1875 44.6138 12.66 51.9188 11.0587 60.6675L10.9425 61.3125L12.1162 60.1613C12.7425 59.5163 13.875 58.4625 14.6175 57.8175L14.61 57.7913ZM102.99 59.4525C103.946 58.965 105.431 56.7188 105.979 54.9413C106.136 54.315 106.447 53.73 106.897 53.2425C108.341 51.6413 109.534 48.7313 109.552 46.74C109.552 43.635 107.794 42.4425 105.236 43.77C104.902 43.9275 104.632 44.0438 104.591 44.0063C104.456 43.8713 105.176 43.1663 106.057 42.6188C107.209 41.8575 107.426 41.4075 107.426 39.7875C107.443 38.4781 107.054 37.1955 106.312 36.1163C105.96 35.5875 105.825 35.2388 105.881 35.0213L106.234 33.7125C106.721 31.9725 106.545 29.9813 105.784 28.7138C104.651 26.8013 103.264 25.8638 101.329 25.7063L100.196 25.6275L100.86 26.37C102.832 28.5 103.789 31.1738 103.399 33.4613C103.204 34.635 103.027 34.8675 101.895 35.3175L101.231 35.5913L101.31 36.4913C101.445 37.9575 101.194 39.03 100.256 41.0025C99.7875 42 99.435 42.8963 99.4762 42.9938C99.5925 43.3275 100.882 43.95 101.899 44.205L102.896 44.4413L102.27 44.655C101.449 44.91 101.272 45.2813 101.272 46.6275C101.272 47.8575 101.449 48.3675 102.345 49.7138C102.754 50.2988 103.027 50.9063 103.069 51.255C103.147 51.8025 103.129 51.84 102.679 51.9975C102.169 52.1407 101.644 52.2262 101.115 52.2525C99.2775 52.3688 99.1425 52.4288 98.3212 53.2088C97.5787 53.9138 97.56 53.9513 97.56 54.7313C97.56 55.8038 97.9687 57.975 98.2237 58.2675C98.5575 58.62 100.41 59.5388 101.134 59.6738C101.758 59.8305 102.418 59.7545 102.99 59.46V59.4525ZM75.9375 57.99C77.13 57.0525 78.0675 56.115 78.5925 55.3125C78.9262 54.825 78.945 54.7275 78.7875 54.315C78.5137 53.6888 76.7175 52.0688 75.72 51.5813C75.0553 51.2835 74.3522 51.0802 73.6312 50.9775L72.4012 50.82L71.64 49.8638C70.0575 47.91 69.18 46.3875 67.9275 43.4363C66.8325 40.935 65.8762 39.4725 64.3537 38.025C63.7275 37.44 63.2812 36.9525 63.3187 36.9525C63.3975 36.9525 64.14 37.3238 64.9987 37.7738C66.4237 38.535 66.6 38.595 67.245 38.4975C69.57 38.2238 71.6212 35.55 72.3637 31.8C72.5775 30.7463 73.0087 29.67 73.4587 29.025C73.4775 29.0063 74.3775 29.5913 75.4312 30.3525C78.1087 32.2463 78.6937 32.5388 80.2162 32.5988C81.2137 32.6363 81.78 32.5613 83.5762 32.13C87.405 31.1925 91.545 30.8213 94.065 31.155C95.49 31.35 97.5412 31.9763 99.0637 32.6963C100.567 33.4013 100.86 33.4388 101.347 33.0075C101.756 32.655 101.756 32.5988 101.756 31.29C101.737 29.355 101.032 27.2663 99.96 26.0175C99.4125 25.3725 97.8712 24.3188 96.345 23.5163C95.8024 23.2285 95.2624 22.936 94.725 22.6388C94.0012 22.2075 93.1837 22.2675 90.9562 22.8525C88.3762 23.5163 87.6937 23.5163 84.7462 22.755C82.245 22.1288 82.0912 22.11 79.6275 22.5C78.3187 22.695 75.0375 22.5788 73.9425 22.2863C73.395 22.1288 72.8475 21.975 72.3225 21.78C71.3662 21.4088 69.705 21.3488 68.2012 21.6225C65.2125 22.1513 62.9475 23.7713 62.1262 25.9763C61.695 27.09 61.755 27.6188 62.3212 27.9675C63.2212 28.5338 64.41 30.0788 64.41 30.6825C64.41 30.72 64.1175 30.4688 63.7837 30.1163C62.9437 29.2388 62.1825 28.845 61.2825 28.845C60.7002 28.8612 60.134 29.0397 59.6476 29.3603C59.1613 29.681 58.7742 30.1311 58.53 30.66C58.2672 31.35 58.0455 32.055 57.8662 32.7713C57.3187 34.7625 56.8312 35.82 55.7962 37.2263C54.8775 38.4975 54.7425 39.0638 55.0725 40.4888C55.8937 44.0813 57.3187 45.5288 63.2737 48.9075C66.3975 50.685 67.9987 51.6825 69.1725 52.56C70.0725 53.2238 70.0912 53.265 70.0125 53.7713C69.8362 54.945 70.5787 56.2125 72.045 57.2475C72.4162 57.5025 72.6487 57.7763 72.6487 57.9713C72.6487 58.3238 73.6462 58.8113 74.3662 58.8113C74.775 58.8113 75.09 58.635 75.93 57.99H75.9375ZM100.02 51.405C102.285 51.4838 102.401 51.3075 101.194 49.9013C99.9225 48.435 99.5737 47.2463 100.042 45.9375L100.237 45.4313L99.435 45.0413C99.1612 44.9063 98.8875 44.7675 98.6137 44.67C98.4787 45.1988 98.34 45.705 98.2237 46.2338C97.9312 47.4263 97.5787 50.5125 97.56 51.8213C97.56 51.9375 97.755 51.9 98.0887 51.6863C98.5575 51.4125 98.7937 51.375 100.024 51.4125L100.02 51.405ZM92.4225 51.2888C93.7912 51.21 95.1975 51.1125 95.5687 51.0525L96.2512 50.955L96.33 48.7088C96.4462 45.5063 96.915 43.6125 98.3025 40.5825C99.2775 38.4338 99.7087 36.5588 99.495 35.1525C99.4162 34.5488 99.3787 34.5075 98.5575 34.155C97.0537 33.5579 95.4876 33.1315 93.8887 32.8838C92.3475 32.67 87.8137 32.7863 86.115 33.12C85.41 33.2363 84.1237 33.51 83.265 33.7238C81.135 34.2113 80.0025 34.155 78.3825 33.45C76.7812 32.745 75.765 32.1038 74.8087 31.2038C74.0475 30.4988 73.9687 30.4613 73.7737 30.6975C73.6162 30.8738 73.5375 31.4025 73.4812 32.535C73.4212 34.275 73.1475 35.19 72.3862 36.42C72.2171 36.6731 72.0727 36.9418 71.955 37.2225C71.955 37.2825 72.54 37.965 73.2637 38.7075C75.765 41.3063 76.995 41.97 78.9675 41.8313C79.6125 41.7713 80.0625 41.7938 80.0625 41.8688C80.0625 42.0263 78.7912 43.02 78.2662 43.2938C78.0112 43.4288 77.955 43.5675 77.9925 43.86L78.3037 45.9113C78.48 47.085 78.615 47.6288 78.7912 47.7863C79.26 48.1763 81.6825 49.4288 83.205 50.0513C85.1962 50.8538 86.2912 51.1463 87.8137 51.2813C89.6887 51.4388 89.7262 51.4388 92.4225 51.2813V51.2888ZM76.2712 49.14C76.3087 49.08 76.1737 47.9475 75.9187 46.6388C75.6075 44.8613 75.4312 44.2163 75.2362 44.04C75.1012 43.9238 74.3775 43.4138 73.6537 42.8888C72.7028 42.205 71.8018 41.4543 70.9575 40.6425L69.6112 39.315L68.8875 39.6863L68.1262 40.095C68.1903 40.4001 68.295 40.6952 68.4375 40.9725C68.6512 41.4413 69.0825 42.5925 69.3937 43.53C70.215 45.9713 70.86 47.145 72.48 49.2713L73.0837 50.0738L74.235 50.25C74.88 50.3475 75.525 50.4863 75.7012 50.5425C75.975 50.6588 76.0125 50.6025 76.0912 49.9763C76.1287 49.7025 76.1887 49.41 76.2675 49.1363L76.2712 49.14ZM101.017 24.8438C102.015 24.7463 102.191 24.6075 101.76 24.1613C101.486 23.8875 100.86 23.8688 100.354 24.1013C100.02 24.2588 99.945 24.2175 99.4162 23.6513C98.8687 23.0475 98.8312 23.025 98.145 23.1038C97.5187 23.1825 97.4212 23.1638 97.3425 22.9088C97.0986 22.4899 96.7955 22.1084 96.4425 21.7763C95.9989 21.2722 95.4443 20.8781 94.8225 20.625C93.6112 20.1563 92.9287 20.2163 91.7737 20.8613C88.4325 22.6763 88.5712 22.6575 85.3462 21.8363C82.3387 21.075 80.0925 20.295 79.3687 19.8038C78.765 19.395 77.475 18.945 76.3987 18.8063C75.5962 18.69 75.09 18.8663 74.3287 19.4888L73.92 19.8225L74.2912 20.4675C74.7975 21.3675 74.7412 21.4238 73.98 20.76C73.1587 20.0775 72.1837 19.6088 71.5575 19.5863C71.1075 19.5863 69.78 20.1713 69.6225 20.4263C69.5625 20.505 69.975 20.6025 70.5225 20.64C71.0887 20.7 71.8687 20.895 72.3975 21.1088C73.7662 21.6938 74.4675 21.8888 75.7162 22.0088C77.085 22.1438 79.5637 21.99 79.8562 21.7538C80.0137 21.6188 80.4412 21.5963 81.3412 21.675C82.5337 21.7538 83.0212 21.87 85.8525 22.6313C87.495 23.0813 88.6462 23.04 90.6 22.515C91.5 22.26 92.6325 22.0088 93.1012 21.9488C93.9037 21.87 94.0575 21.9113 95.31 22.4775C97.3012 23.3775 98.3587 23.9438 98.9437 24.4688C99.5287 24.975 99.6075 24.975 101.014 24.8588L101.017 24.8438ZM89.8837 21.4275L91.0762 20.8013L91.0387 19.59C91.02 18.75 90.9787 17.9288 90.9412 17.1113L90.8437 15.8625L89.6512 16.7813C88.9462 17.3288 88.2637 17.7375 87.9712 17.7975C87.1125 17.955 82.875 17.7975 82.4812 17.5838C81.9567 17.1963 81.4661 16.7647 81.015 16.2938L79.92 15.18L79.9012 15.8438C79.9012 16.1963 79.8637 16.8 79.785 17.1713C79.6875 17.8763 79.6875 17.895 80.4487 18.8513C80.8575 19.38 81.1912 19.8488 81.1912 19.905C81.1912 20.2763 86.835 22.035 88.1062 22.0538C88.515 22.0538 89.025 21.8775 89.8837 21.4275ZM87.6187 16.9913C89.025 16.7175 89.7075 15.7013 90.2362 13.125C90.7837 10.35 91.0575 5.99625 90.8025 4.14C90.5662 2.46 88.6912 1.7175 85.1175 1.83375C82.89 1.9125 81.9712 2.12625 81.21 2.77125C80.7412 3.16125 80.7412 3.2025 80.5275 5.055C80.1375 8.61 80.7225 13.6688 81.7387 15.5625C82.2262 16.4813 82.6575 16.8113 83.5537 16.9688C84.57 17.145 86.7375 17.145 87.615 16.9875L87.6187 16.9913Z" fill="black"/>
    </g>
    <g id="vscode">
        <path d="M101.535 17.605L81.354 7.88899C80.2143 7.33948 78.9319 7.15814 77.6845 7.37011C76.4372 7.58208 75.2867 8.17686 74.3925 9.07199L8.32998 69.3C7.52845 70.0273 7.04865 71.0432 6.99614 72.1243C6.94363 73.2053 7.32271 74.2629 8.04998 75.0645C8.13748 75.159 8.22498 75.25 8.31948 75.334L13.713 80.234C14.4178 80.8754 15.3249 81.2497 16.277 81.2919C17.229 81.3341 18.1657 81.0416 18.9245 80.465L98.497 20.125C99.098 19.6689 99.8144 19.3897 100.566 19.3186C101.317 19.2476 102.073 19.3877 102.749 19.7231C103.424 20.0585 103.993 20.5758 104.391 21.217C104.789 21.8581 105 22.5975 105 23.352V23.1175C105 21.9656 104.675 20.8372 104.062 19.862C103.449 18.8868 102.573 18.1045 101.535 17.605Z" fill="#0065A9"/>
        <path d="M101.535 94.395L81.354 104.115C80.214 104.662 78.9319 104.843 77.6849 104.631C76.4379 104.419 75.2875 103.825 74.3925 102.932L8.32998 42.7C7.52845 41.9727 7.04865 40.9568 6.99614 39.8758C6.94363 38.7947 7.32271 37.7371 8.04998 36.9355C8.13748 36.841 8.22498 36.75 8.31948 36.666L13.713 31.766C14.4185 31.1219 15.3277 30.7459 16.2821 30.7037C17.2365 30.6615 18.1754 30.9557 18.935 31.535L98.497 91.875C99.098 92.3311 99.8144 92.6104 100.566 92.6814C101.317 92.7524 102.073 92.6123 102.749 92.2769C103.424 91.9415 103.993 91.4242 104.391 90.783C104.789 90.1419 105 89.4025 105 88.648V88.9C104.996 90.0488 104.669 91.1733 104.057 92.1451C103.444 93.1168 102.57 93.8965 101.535 94.395Z" fill="#007ACC"/>
        <path d="M81.354 104.115C80.214 104.662 78.932 104.843 77.685 104.631C76.438 104.419 75.2876 103.825 74.3925 102.932C74.8952 103.428 75.533 103.764 76.2261 103.899C76.9193 104.035 77.6369 103.962 78.289 103.691C78.9412 103.42 79.4988 102.963 79.8921 102.376C80.2855 101.79 80.4969 101.1 80.5 100.394V11.606C80.5006 10.8965 80.2906 10.2028 79.8966 9.61281C79.5026 9.02277 78.9424 8.56294 78.2868 8.29158C77.6313 8.02022 76.91 7.94953 76.2142 8.08846C75.5184 8.2274 74.8796 8.56971 74.3785 9.07204C75.2729 8.17723 76.4232 7.58242 77.6703 7.36986C78.9174 7.1573 80.1998 7.3375 81.34 7.88554L101.518 17.5875C102.559 18.0845 103.438 18.8658 104.054 19.8412C104.671 20.8166 104.998 21.9463 105 23.1V88.9C105 90.0528 104.675 91.1823 104.061 92.1582C103.448 93.1341 102.571 93.9168 101.532 94.416L81.354 104.115Z" fill="#1F9CF0"/>
    </g>

    <g id="githubBig">
        <path fill-rule="evenodd" clip-rule="evenodd" d="M44 0C19.69 0 0 19.69 0 44C0 63.47 12.595 79.915 30.085 85.745C32.285 86.13 33.11 84.81 33.11 83.655C33.11 82.61 33.055 79.145 33.055 75.46C22 77.495 19.14 72.765 18.26 70.29C17.765 69.025 15.62 65.12 13.75 64.075C12.21 63.25 10.01 61.215 13.695 61.16C17.16 61.105 19.635 64.35 20.46 65.67C24.42 72.325 30.745 70.455 33.275 69.3C33.66 66.44 34.815 64.515 36.08 63.415C26.29 62.315 16.06 58.52 16.06 41.69C16.06 36.905 17.765 32.945 20.57 29.865C20.13 28.765 18.59 24.255 21.01 18.205C21.01 18.205 24.695 17.05 33.11 22.715C36.63 21.725 40.37 21.23 44.11 21.23C47.85 21.23 51.59 21.725 55.11 22.715C63.525 16.995 67.21 18.205 67.21 18.205C69.63 24.255 68.09 28.765 67.65 29.865C70.455 32.945 72.16 36.85 72.16 41.69C72.16 58.575 61.875 62.315 52.085 63.415C53.68 64.79 55.055 67.43 55.055 71.555C55.055 77.44 55 82.17 55 83.655C55 84.81 55.825 86.185 58.025 85.745C66.7597 82.796 74.3497 77.1822 79.7268 69.6937C85.1039 62.2052 87.9974 53.219 88 44C88 19.69 68.31 0 44 0Z" fill="black"/>
    </g>





    <g id="kalendar">
        <g clip-path="url(#clip0_41861_62)">
            <path d="M5.33341 6.5C5.1566 6.5 4.98703 6.44732 4.86201 6.35355C4.73699 6.25979 4.66675 6.13261 4.66675 6C4.66675 5.86739 4.73699 5.74021 4.86201 5.64645C4.98703 5.55268 5.1566 5.5 5.33341 5.5C5.51023 5.5 5.67979 5.55268 5.80482 5.64645C5.92984 5.74021 6.00008 5.86739 6.00008 6C6.00008 6.13261 5.92984 6.25979 5.80482 6.35355C5.67979 6.44732 5.51023 6.5 5.33341 6.5ZM5.33341 8.5C5.1566 8.5 4.98703 8.44732 4.86201 8.35355C4.73699 8.25979 4.66675 8.13261 4.66675 8C4.66675 7.86739 4.73699 7.74021 4.86201 7.64645C4.98703 7.55268 5.1566 7.5 5.33341 7.5C5.51023 7.5 5.67979 7.55268 5.80482 7.64645C5.92984 7.74021 6.00008 7.86739 6.00008 8C6.00008 8.13261 5.92984 8.25979 5.80482 8.35355C5.67979 8.44732 5.51023 8.5 5.33341 8.5ZM7.33341 8C7.33341 8.13261 7.40365 8.25979 7.52868 8.35355C7.6537 8.44732 7.82327 8.5 8.00008 8.5C8.17689 8.5 8.34646 8.44732 8.47149 8.35355C8.59651 8.25979 8.66675 8.13261 8.66675 8C8.66675 7.86739 8.59651 7.74021 8.47149 7.64645C8.34646 7.55268 8.17689 7.5 8.00008 7.5C7.82327 7.5 7.6537 7.55268 7.52868 7.64645C7.40365 7.74021 7.33341 7.86739 7.33341 8ZM10.6667 8.5C10.4899 8.5 10.3204 8.44732 10.1953 8.35355C10.0703 8.25979 10.0001 8.13261 10.0001 8C10.0001 7.86739 10.0703 7.74021 10.1953 7.64645C10.3204 7.55268 10.4899 7.5 10.6667 7.5C10.8436 7.5 11.0131 7.55268 11.1382 7.64645C11.2632 7.74021 11.3334 7.86739 11.3334 8C11.3334 8.13261 11.2632 8.25979 11.1382 8.35355C11.0131 8.44732 10.8436 8.5 10.6667 8.5ZM7.33341 6C7.33341 6.13261 7.40365 6.25979 7.52868 6.35355C7.6537 6.44732 7.82327 6.5 8.00008 6.5C8.17689 6.5 8.34646 6.44732 8.47149 6.35355C8.59651 6.25979 8.66675 6.13261 8.66675 6C8.66675 5.86739 8.59651 5.74021 8.47149 5.64645C8.34646 5.55268 8.17689 5.5 8.00008 5.5C7.82327 5.5 7.6537 5.55268 7.52868 5.64645C7.40365 5.74021 7.33341 5.86739 7.33341 6ZM10.6667 6.5C10.4899 6.5 10.3204 6.44732 10.1953 6.35355C10.0703 6.25979 10.0001 6.13261 10.0001 6C10.0001 5.86739 10.0703 5.74021 10.1953 5.64645C10.3204 5.55268 10.4899 5.5 10.6667 5.5C10.8436 5.5 11.0131 5.55268 11.1382 5.64645C11.2632 5.74021 11.3334 5.86739 11.3334 6C11.3334 6.13261 11.2632 6.25979 11.1382 6.35355C11.0131 6.44732 10.8436 6.5 10.6667 6.5ZM5.33341 3.5C5.1566 3.5 4.98703 3.55268 4.86201 3.64645C4.73699 3.74021 4.66675 3.86739 4.66675 4C4.66675 4.13261 4.73699 4.25979 4.86201 4.35355C4.98703 4.44732 5.1566 4.5 5.33341 4.5H10.6667C10.8436 4.5 11.0131 4.44732 11.1382 4.35355C11.2632 4.25979 11.3334 4.13261 11.3334 4C11.3334 3.86739 11.2632 3.74021 11.1382 3.64645C11.0131 3.55268 10.8436 3.5 10.6667 3.5H5.33341Z" fill="#A7A7A7"/>
            <path fill-rule="evenodd" clip-rule="evenodd" d="M4 1.5C3.46957 1.5 2.96086 1.65804 2.58579 1.93934C2.21071 2.22064 2 2.60218 2 3V9C2 9.39782 2.21071 9.77936 2.58579 10.0607C2.96086 10.342 3.46957 10.5 4 10.5H12C12.5304 10.5 13.0391 10.342 13.4142 10.0607C13.7893 9.77936 14 9.39782 14 9V3C14 2.60218 13.7893 2.22064 13.4142 1.93934C13.0391 1.65804 12.5304 1.5 12 1.5H4ZM12 2.5H4C3.82319 2.5 3.65362 2.55268 3.5286 2.64645C3.40357 2.74021 3.33333 2.86739 3.33333 3V9C3.33333 9.13261 3.40357 9.25979 3.5286 9.35355C3.65362 9.44732 3.82319 9.5 4 9.5H12C12.1768 9.5 12.3464 9.44732 12.4714 9.35355C12.5964 9.25979 12.6667 9.13261 12.6667 9V3C12.6667 2.86739 12.5964 2.74021 12.4714 2.64645C12.3464 2.55268 12.1768 2.5 12 2.5Z" fill="#A7A7A7"/>
        </g>
        <defs>
            <clipPath id="clip0_41861_62">
                <rect width="16" height="12" fill="white"/>
            </clipPath>
        </defs>
    </g>
    <g id="linkChain">
        <path d="M11.2864 8.7133C10.6038 8.031 9.67822 7.64771 8.71309 7.64771C7.74797 7.64771 6.82235 8.031 6.13976 8.7133L3.56559 11.2866C2.88299 11.9692 2.49951 12.895 2.49951 13.8604C2.49951 14.8257 2.88299 15.7515 3.56559 16.4341C4.24819 17.1167 5.174 17.5002 6.13934 17.5002C7.10469 17.5002 8.03049 17.1167 8.71309 16.4341L9.99976 15.1475" stroke="black" stroke-width="1.66667" stroke-linecap="round" stroke-linejoin="round"/>
        <path d="M8.71289 11.2867C9.39548 11.969 10.3211 12.3523 11.2862 12.3523C12.2513 12.3523 13.177 11.969 13.8596 11.2867L16.4337 8.71334C17.1163 8.03074 17.4998 7.10493 17.4998 6.13959C17.4998 5.17424 17.1163 4.24844 16.4337 3.56584C15.7511 2.88324 14.8253 2.49976 13.86 2.49976C12.8946 2.49976 11.9688 2.88324 11.2862 3.56584L9.99956 4.8525" stroke="black" stroke-width="1.66667" stroke-linecap="round" stroke-linejoin="round"/>
    </g>
    <g id="linkedin">
        <g clip-path="url(#clip0_2_5824)">
            <path d="M15.0001 0.599976C7.0471 0.599976 0.600098 7.04698 0.600098 15C0.600098 22.953 7.0471 29.4 15.0001 29.4C22.9531 29.4 29.4001 22.953 29.4001 15C29.4001 7.04698 22.9531 0.599976 15.0001 0.599976ZM11.4751 20.9685H8.5591V11.5845H11.4751V20.9685ZM9.9991 10.4325C9.0781 10.4325 8.4826 9.77997 8.4826 8.97297C8.4826 8.14948 9.0961 7.51648 10.0366 7.51648C10.9771 7.51648 11.5531 8.14948 11.5711 8.97297C11.5711 9.77997 10.9771 10.4325 9.9991 10.4325ZM22.1251 20.9685H19.2091V15.768C19.2091 14.5575 18.7861 13.7355 17.7316 13.7355C16.9261 13.7355 16.4476 14.292 16.2361 14.8275C16.1581 15.018 16.1386 15.288 16.1386 15.5565V20.967H13.2211V14.577C13.2211 13.4055 13.1836 12.426 13.1446 11.583H15.6781L15.8116 12.8865H15.8701C16.2541 12.2745 17.1946 11.3715 18.7681 11.3715C20.6866 11.3715 22.1251 12.657 22.1251 15.42V20.9685Z" fill="#42446E"/>
        </g>
        <defs>
            <clipPath id="clip0_2_5824">
                <rect width="30" height="30" fill="white"/>
            </clipPath>
        </defs>
    </g>
    <g id="location">
        <path d="M8 6.75C7.50555 6.75 7.0222 6.64003 6.61108 6.43401C6.19995 6.22798 5.87952 5.93514 5.6903 5.59253C5.50108 5.24992 5.45157 4.87292 5.54804 4.50921C5.6445 4.14549 5.8826 3.8114 6.23223 3.54918C6.58187 3.28695 7.02732 3.10838 7.51228 3.03603C7.99723 2.96368 8.4999 3.00081 8.95671 3.14273C9.41353 3.28464 9.80397 3.52496 10.0787 3.83331C10.3534 4.14165 10.5 4.50416 10.5 4.875C10.4992 5.3721 10.2356 5.84867 9.76689 6.20017C9.29822 6.55167 8.6628 6.74941 8 6.75ZM8 3.75C7.70333 3.75 7.41332 3.81598 7.16665 3.9396C6.91997 4.06321 6.72771 4.23892 6.61418 4.44448C6.50065 4.65005 6.47095 4.87625 6.52882 5.09448C6.5867 5.31271 6.72956 5.51316 6.93934 5.6705C7.14912 5.82783 7.41639 5.93498 7.70737 5.97838C7.99834 6.02179 8.29994 5.99951 8.57403 5.91437C8.84812 5.82922 9.08238 5.68502 9.24721 5.50002C9.41203 5.31501 9.5 5.09751 9.5 4.875C9.4996 4.57672 9.34144 4.29075 9.06022 4.07983C8.779 3.86892 8.3977 3.7503 8 3.75Z" fill="#A7A7A7"/>
        <path d="M8.00001 11.25L3.78201 7.51912C3.7234 7.4631 3.66539 7.40673 3.60801 7.35C2.8875 6.63817 2.49826 5.76871 2.50001 4.875C2.50001 3.78098 3.07947 2.73177 4.11092 1.95818C5.14237 1.1846 6.54132 0.75 8.00001 0.75C9.4587 0.75 10.8576 1.1846 11.8891 1.95818C12.9205 2.73177 13.5 3.78098 13.5 4.875C13.5018 5.7683 13.1127 6.63737 12.3925 7.34888L12.392 7.35C12.392 7.35 12.242 7.49775 12.2195 7.51763L8.00001 11.25ZM4.40601 6.89813C4.40701 6.89813 4.52301 7.01362 4.54951 7.03837L8.00001 10.0905L11.455 7.03425C11.477 7.01362 11.594 6.89738 11.5945 6.897C12.1831 6.31542 12.5012 5.60514 12.5 4.875C12.5 3.97989 12.0259 3.12145 11.182 2.48851C10.3381 1.85558 9.19348 1.5 8.00001 1.5C6.80653 1.5 5.66194 1.85558 4.81803 2.48851C3.97411 3.12145 3.50001 3.97989 3.50001 4.875C3.49896 5.60559 3.81739 6.31628 4.40651 6.89813H4.40601Z" fill="#A7A7A7"/>
    </g>
    <g id="ofisBuilding">
        <path d="M3.3335 1.5V10.5H7.3335V8.75H8.66683V10.5H12.6668V1.5H3.3335ZM4.66683 2.5H6.00016V3.5H4.66683V2.5ZM7.3335 2.5H8.66683V3.5H7.3335V2.5ZM10.0002 2.5H11.3335V3.5H10.0002V2.5ZM4.66683 4.5H6.00016V5.5H4.66683V4.5ZM7.3335 4.5H8.66683V5.5H7.3335V4.5ZM10.0002 4.5H11.3335V5.5H10.0002V4.5ZM4.66683 6.5H6.00016V7.5H4.66683V6.5ZM7.3335 6.5H8.66683V7.5H7.3335V6.5ZM10.0002 6.5H11.3335V7.5H10.0002V6.5ZM4.66683 8.5H6.00016V9.5H4.66683V8.5ZM10.0002 8.5H11.3335V9.5H10.0002V8.5Z" fill="#A7A7A7"/>
    </g>

    <g id="setka">
        <g opacity="0.5">
            <path d="M714.509 231.003L597.003 299.867" stroke="#B2B2B2"/>
            <path d="M645.645 113.497L528.139 182.361" stroke="url(#paint0_linear_15_2063)"/>
            <path d="M597.003 299.867L528.139 182.361" stroke="#B2B2B2"/>
            <path d="M714.509 231.003L645.645 113.497" stroke="#B2B2B2"/>
            <path d="M597.003 299.867L440.328 391.686" stroke="#B2B2B2"/>
            <path d="M528.139 182.361L371.464 274.181" stroke="url(#paint1_linear_15_2063)"/>
            <path d="M440.329 391.687L371.464 274.181" stroke="#B2B2B2"/>
            <path d="M597.003 299.867L528.139 182.361" stroke="url(#paint2_linear_15_2063)"/>
            <path d="M97.2837 434.865L214.79 366" stroke="#B2B2B2"/>
            <path d="M166.148 552.37L283.654 483.506" stroke="#B2B2B2"/>
            <path d="M214.79 366L283.654 483.506" stroke="#B2B2B2"/>
            <path d="M97.2837 434.865L166.148 552.37" stroke="#B2B2B2"/>
            <path d="M214.79 366L371.464 274.181" stroke="url(#paint3_linear_15_2063)"/>
            <path d="M283.654 483.506L440.329 391.687" stroke="#B2B2B2"/>
            <path d="M214.79 366L283.654 483.506" stroke="#B2B2B2"/>
            <path d="M440.328 391.687L557.834 322.822" stroke="#B2B2B2"/>
            <path d="M509.193 509.193L626.699 440.328" stroke="#B2B2B2"/>
            <path d="M557.834 322.822L626.699 440.328" stroke="#B2B2B2"/>
            <path d="M557.834 322.822L714.509 231.003" stroke="#B2B2B2"/>
            <path d="M557.834 322.822L626.698 440.328" stroke="#B2B2B2"/>
            <path d="M509.193 509.192L391.687 578.057" stroke="#B2B2B2"/>
            <path d="M440.329 391.686L322.823 460.551" stroke="#B2B2B2"/>
            <path d="M391.687 578.057L322.823 460.551" stroke="#B2B2B2"/>
            <path d="M391.687 578.057L235.012 669.876" stroke="#B2B2B2"/>
            <path d="M322.823 460.551L166.148 552.37" stroke="#B2B2B2"/>
            <path d="M235.013 669.876L166.148 552.37" stroke="url(#paint4_linear_15_2063)"/>
            <path d="M391.687 578.057L322.823 460.551" stroke="#B2B2B2"/>
            <path d="M734.729 534.879L578.054 626.698" stroke="#B2B2B2"/>
            <path d="M665.865 417.373L509.19 509.192" stroke="#B2B2B2"/>
            <path d="M578.054 626.698L509.19 509.192" stroke="#B2B2B2"/>
            <path d="M235.01 669.876L352.515 601.011" stroke="#B2B2B2"/>
            <path d="M303.874 787.382L421.38 718.517" stroke="#B2B2B2"/>
            <path d="M352.516 601.011L421.38 718.517" stroke="#B2B2B2"/>
            <path d="M235.01 669.876L303.874 787.382" stroke="#B2B2B2"/>
            <path d="M352.516 601.011L509.191 509.192" stroke="url(#paint5_linear_15_2063)"/>
            <path d="M421.38 718.517L578.055 626.698" stroke="#B2B2B2"/>
            <path d="M352.516 601.011L421.381 718.517" stroke="#B2B2B2"/>
            <path d="M578.054 626.698L695.56 557.834" stroke="#B2B2B2"/>
            <path d="M646.919 744.204L529.413 813.068" stroke="#B2B2B2"/>
            <path d="M578.054 626.698L460.549 695.562" stroke="#B2B2B2"/>
            <path d="M529.413 813.068L460.549 695.562" stroke="#B2B2B2"/>
            <path d="M529.413 813.068L372.739 904.887" stroke="#B2B2B2"/>
            <path d="M460.549 695.562L303.874 787.382" stroke="#B2B2B2"/>
            <path d="M372.739 904.888L303.874 787.382" stroke="#B2B2B2"/>
            <path d="M529.413 813.068L460.549 695.562" stroke="url(#paint6_linear_15_2063)"/>
        </g>
        <defs>
            <linearGradient id="paint0_linear_15_2063" x1="621.653" y1="107.235" x2="562.831" y2="160.098" gradientUnits="userSpaceOnUse">
                <stop stop-color="#13B0F5"/>
                <stop offset="1" stop-color="#CA24B4"/>
            </linearGradient>
            <linearGradient id="paint1_linear_15_2063" x1="527.723" y1="183.954" x2="427.611" y2="316.567" gradientUnits="userSpaceOnUse">
                <stop stop-color="#E70FAA"/>
                <stop offset="1" stop-color="#13B0F5"/>
            </linearGradient>
            <linearGradient id="paint2_linear_15_2063" x1="603.265" y1="275.875" x2="550.402" y2="217.053" gradientUnits="userSpaceOnUse">
                <stop stop-color="#13B0F5"/>
                <stop offset="1" stop-color="#CA24B4"/>
            </linearGradient>
            <linearGradient id="paint3_linear_15_2063" x1="246.778" y1="374.349" x2="325.208" y2="303.866" gradientUnits="userSpaceOnUse">
                <stop stop-color="#00C0FD"/>
                <stop offset="0.421875" stop-color="#E70FAA"/>
                <stop offset="1" stop-color="#00C0FD"/>
            </linearGradient>
            <linearGradient id="paint4_linear_15_2063" x1="235.013" y1="669.876" x2="134.428" y2="594.956" gradientUnits="userSpaceOnUse">
                <stop stop-color="#8E34FF"/>
                <stop offset="0.494792" stop-color="#CA24B4"/>
                <stop offset="1" stop-color="#8E34FF"/>
            </linearGradient>
            <linearGradient id="paint5_linear_15_2063" x1="392.585" y1="577.866" x2="465.959" y2="479.806" gradientUnits="userSpaceOnUse">
                <stop stop-color="#13B0F5"/>
                <stop offset="0.75" stop-color="#CA24B4"/>
                <stop offset="1" stop-color="#13B0F5"/>
            </linearGradient>
            <linearGradient id="paint6_linear_15_2063" x1="529.413" y1="813.068" x2="428.829" y2="738.149" gradientUnits="userSpaceOnUse">
                <stop stop-color="#13B0F5"/>
                <stop offset="0.0582928" stop-color="#CA24B4"/>
                <stop offset="1" stop-color="#13B0F5"/>
            </linearGradient>
        </defs>
    </g>

    <g id="litl-akar">
        <path d="M11.2864 8.71333C10.6038 8.03103 9.67822 7.64774 8.71309 7.64774C7.74797 7.64774 6.82235 8.03103 6.13976 8.71333L3.56559 11.2867C2.88299 11.9693 2.49951 12.8951 2.49951 13.8604C2.49951 14.8258 2.88299 15.7516 3.56559 16.4342C4.24819 17.1168 5.174 17.5002 6.13934 17.5002C7.10469 17.5002 8.03049 17.1168 8.71309 16.4342L9.99976 15.1475" stroke="black" stroke-width="1.66667" stroke-linecap="round" stroke-linejoin="round"/>
        <path d="M8.71289 11.2867C9.39548 11.969 10.3211 12.3523 11.2862 12.3523C12.2513 12.3523 13.177 11.969 13.8596 11.2867L16.4337 8.71334C17.1163 8.03074 17.4998 7.10493 17.4998 6.13959C17.4998 5.17424 17.1163 4.24844 16.4337 3.56584C15.7511 2.88324 14.8253 2.49976 13.86 2.49976C12.8946 2.49976 11.9688 2.88324 11.2862 3.56584L9.99956 4.8525" stroke="black" stroke-width="1.66667" stroke-linecap="round" stroke-linejoin="round"/>
    </g>

    <g id="litl-github">
        <g clip-path="url(#clip0_4537_878)">
            <path fill-rule="evenodd" clip-rule="evenodd" d="M10 0C4.475 0 0 4.475 0 10C0 14.425 2.8625 18.1625 6.8375 19.4875C7.3375 19.575 7.525 19.275 7.525 19.0125C7.525 18.775 7.5125 17.9875 7.5125 17.15C5 17.6125 4.35 16.5375 4.15 15.975C4.0375 15.6875 3.55 14.8 3.125 14.5625C2.775 14.375 2.275 13.9125 3.1125 13.9C3.9 13.8875 4.4625 14.625 4.65 14.925C5.55 16.4375 6.9875 16.0125 7.5625 15.75C7.65 15.1 7.9125 14.6625 8.2 14.4125C5.975 14.1625 3.65 13.3 3.65 9.475C3.65 8.3875 4.0375 7.4875 4.675 6.7875C4.575 6.5375 4.225 5.5125 4.775 4.1375C4.775 4.1375 5.6125 3.875 7.525 5.1625C8.325 4.9375 9.175 4.825 10.025 4.825C10.875 4.825 11.725 4.9375 12.525 5.1625C14.4375 3.8625 15.275 4.1375 15.275 4.1375C15.825 5.5125 15.475 6.5375 15.375 6.7875C16.0125 7.4875 16.4 8.375 16.4 9.475C16.4 13.3125 14.0625 14.1625 11.8375 14.4125C12.2 14.725 12.5125 15.325 12.5125 16.2625C12.5125 17.6 12.5 18.675 12.5 19.0125C12.5 19.275 12.6875 19.5875 13.1875 19.4875C15.1726 18.8173 16.8976 17.5414 18.1197 15.8395C19.3418 14.1375 19.9994 12.0952 20 10C20 4.475 15.525 0 10 0Z" fill="black"/>
        </g>
        <defs>
            <clipPath id="clip0_4537_878">
                <rect width="20" height="20" fill="white"/>
            </clipPath>
        </defs>
    </g>


    <!---list logo  -->
    <g id="twitter">
        <path d="M16.875 1.875C8.59152 1.875 1.875 8.59152 1.875 16.875C1.875 25.1585 8.59152 31.875 16.875 31.875C25.1585 31.875 31.875 25.1585 31.875 16.875C31.875 8.59152 25.1585 1.875 16.875 1.875ZM24.0837 13.1819C24.0937 13.3393 24.0937 13.5033 24.0937 13.6641C24.0937 18.5792 20.3504 24.2411 13.51 24.2411C11.4007 24.2411 9.44531 23.6283 7.79799 22.5737C8.09933 22.6071 8.38728 22.6205 8.69531 22.6205C10.4364 22.6205 12.0368 22.0312 13.3125 21.0335C11.6786 21 10.3058 19.9286 9.83705 18.4554C10.4096 18.5391 10.9252 18.5391 11.5145 18.3884C10.6732 18.2175 9.91699 17.7605 9.37438 17.0953C8.83178 16.43 8.53623 15.5973 8.53795 14.7388V14.692C9.03013 14.9699 9.60938 15.1406 10.2154 15.1641C9.70595 14.8245 9.28814 14.3645 8.99903 13.8249C8.70993 13.2852 8.55845 12.6825 8.55804 12.0703C8.55804 11.3772 8.73884 10.7444 9.06362 10.1953C9.99744 11.3449 11.1627 12.2851 12.4837 12.9548C13.8047 13.6245 15.2518 14.0088 16.731 14.0826C16.2054 11.5547 18.0938 9.50893 20.3638 9.50893C21.4353 9.50893 22.3996 9.95759 23.0792 10.6808C23.9196 10.5234 24.7232 10.2087 25.4397 9.78683C25.1618 10.6473 24.5792 11.3739 23.8058 11.8326C24.5558 11.7522 25.279 11.5446 25.9487 11.2533C25.4431 11.9967 24.8103 12.6562 24.0837 13.1819Z" fill="#42446E"/>
    </g>
    <g id="github">
        <path fill-rule="evenodd" clip-rule="evenodd" d="M15 0C6.7125 0 0 6.7125 0 15C0 21.6375 4.29375 27.2437 10.2563 29.2313C11.0063 29.3625 11.2875 28.9125 11.2875 28.5188C11.2875 28.1625 11.2688 26.9813 11.2688 25.725C7.5 26.4188 6.525 24.8062 6.225 23.9625C6.05625 23.5312 5.325 22.2 4.6875 21.8438C4.1625 21.5625 3.4125 20.8687 4.66875 20.85C5.85 20.8313 6.69375 21.9375 6.975 22.3875C8.325 24.6562 10.4812 24.0187 11.3438 23.625C11.475 22.65 11.8688 21.9937 12.3 21.6187C8.9625 21.2437 5.475 19.95 5.475 14.2125C5.475 12.5813 6.05625 11.2313 7.0125 10.1813C6.8625 9.80625 6.3375 8.26875 7.1625 6.20625C7.1625 6.20625 8.41875 5.8125 11.2875 7.74375C12.4875 7.40625 13.7625 7.2375 15.0375 7.2375C16.3125 7.2375 17.5875 7.40625 18.7875 7.74375C21.6562 5.79375 22.9125 6.20625 22.9125 6.20625C23.7375 8.26875 23.2125 9.80625 23.0625 10.1813C24.0188 11.2313 24.6 12.5625 24.6 14.2125C24.6 19.9688 21.0938 21.2437 17.7563 21.6187C18.3 22.0875 18.7688 22.9875 18.7688 24.3937C18.7688 26.4 18.75 28.0125 18.75 28.5188C18.75 28.9125 19.0312 29.3813 19.7812 29.2313C22.759 28.2259 25.3465 26.3121 27.1796 23.7592C29.0127 21.2063 29.9991 18.1429 30 15C30 6.7125 23.2875 0 15 0Z" fill="#42446E"/>
    </g>

    <g id="logo">
        <path d="M7.11463 24.8095L1.89664 23.1902L10.889 4.26321H0.296387V0.119141H16.4549V3.84532L7.11463 24.8095Z" fill="url(#paint0_linear_2_5661)"/>

    </g>
</svg>
